<svg xmlns="http://www.w3.org/2000/svg" aria-hidden="true" style="position:absolute;width:0;height:0;overflow:hidden">
  <defs>
    <symbol id="star" viewBox="0 0 32 32">
      <path d="M14.513 1.037a1.584 1.584 0 0 1 2.973 0l3.246 8.164c.232.583.756.982 1.358 1.032l8.426.707c1.427.12 2.006 1.983.919 2.958l-6.419 5.752a1.73 1.73 0 0 0-.519 1.67l1.961 8.6c.332 1.457-1.183 2.609-2.405 1.828l-7.213-4.609a1.551 1.551 0 0 0-1.679 0l-7.214 4.609c-1.222.781-2.738-.371-2.405-1.828l1.961-8.6a1.73 1.73 0 0 0-.519-1.67l-6.42-5.752c-1.088-.975-.509-2.838.919-2.958l8.426-.707a1.617 1.617 0 0 0 1.358-1.032l3.246-8.164z"/>
    </symbol>
    <symbol id="star-outline" viewBox="0 0 32 32">
      <path stroke-width="2.667" d="M16 1.333c.05 0 .095.014.131.038.031.02.078.062.116.159l3.246 8.164a2.95 2.95 0 0 0 2.486 1.867l8.426.707a.214.214 0 0 1 .135.053.37.37 0 0 1 .105.172c.052.168.008.314-.1.411l-6.419 5.751a3.069 3.069 0 0 0-.93 2.96l1.962 8.6c.043.187-.028.32-.128.396a.256.256 0 0 1-.13.055c-.024.002-.065-.001-.13-.043l-7.213-4.608a2.884 2.884 0 0 0-3.115 0l-7.213 4.608c-.066.042-.106.045-.13.043a.247.247 0 0 1-.13-.055c-.1-.076-.17-.209-.128-.396l1.962-8.6a3.065 3.065 0 0 0-.93-2.96l-6.419-5.751c-.108-.097-.152-.244-.1-.411a.379.379 0 0 1 .105-.172.216.216 0 0 1 .135-.053l8.426-.707a2.952 2.952 0 0 0 2.486-1.867l3.246-8.164a.318.318 0 0 1 .116-.159.235.235 0 0 1 .131-.038z"/>
    </symbol>
    <symbol id="email" viewBox="0 0 32 32">
      <path d="M26.667 5.333H5.334A2.67 2.67 0 0 0 2.667 8v16a2.67 2.67 0 0 0 2.667 2.667h21.333A2.67 2.67 0 0 0 29.334 24V8a2.67 2.67 0 0 0-2.667-2.667zm0 2.667v.681L16 16.978 5.333 8.682v-.683h21.333zM5.333 24V12.059l9.848 7.66a1.327 1.327 0 0 0 1.638 0l9.848-7.66L26.67 24H5.334z"/>
    </symbol>
    <symbol id="phone" viewBox="0 0 32 32">
      <path d="M23.61 16.391a1.338 1.338 0 0 0-.942-.391 1.334 1.334 0 0 0-.942.391l-2.125 2.125c-.985-.293-2.824-.96-3.989-2.125s-1.832-3.004-2.125-3.989l2.125-2.125a1.338 1.338 0 0 0 .391-.942 1.334 1.334 0 0 0-.391-.942L10.279 3.06a1.338 1.338 0 0 0-.942-.391 1.334 1.334 0 0 0-.942.391L4.779 6.676a2.663 2.663 0 0 0-.781 1.913c.031 1.899.533 8.493 5.731 13.691s11.792 5.699 13.692 5.731h.037c.704 0 1.369-.277 1.873-.781l3.616-3.616a1.338 1.338 0 0 0 .391-.942 1.33 1.33 0 0 0-.391-.942l-5.333-5.335zm-.17 8.949c-1.664-.028-7.357-.475-11.831-4.949C7.121 15.903 6.686 10.19 6.66 8.559l2.673-2.673 3.448 3.448-1.724 1.724a1.33 1.33 0 0 0-.362 1.216c.032.153.815 3.789 3.028 6.003s5.849 2.996 6.003 3.028a1.317 1.317 0 0 0 1.216-.361l1.725-1.724 3.448 3.448-2.675 2.673z"/>
    </symbol>
    <symbol id="location" viewBox="0 0 32 32">
      <path d="M16 18.667c2.941 0 5.333-2.392 5.333-5.333S18.941 8.001 16 8.001c-2.941 0-5.333 2.392-5.333 5.333s2.392 5.333 5.333 5.333zm0-8c1.471 0 2.667 1.196 2.667 2.667S17.471 16.001 16 16.001c-1.471 0-2.667-1.196-2.667-2.667s1.196-2.667 2.667-2.667z"/>
      <path d="M15.227 29.085a1.332 1.332 0 0 0 1.546 0c.405-.287 9.932-7.165 9.893-15.752 0-5.881-4.785-10.667-10.667-10.667S5.332 7.451 5.332 13.326c-.039 8.593 9.488 15.472 9.893 15.759zM16 5.333c4.412 0 8 3.588 8 8.007.028 5.917-5.851 11.231-8 12.973-2.148-1.744-8.028-7.059-8-12.98 0-4.412 3.588-8 8-8z"/>
    </symbol>
    <symbol id="facebook" viewBox="0 0 32 32">
      <path d="M29.333 16.405C29.333 8.996 23.364 2.99 16 2.99S2.667 8.996 2.667 16.405c0 6.696 4.876 12.245 11.25 13.252v-9.374h-3.385v-3.878h3.385V13.45c0-3.362 1.991-5.219 5.036-5.219 1.459 0 2.985.262 2.985.262v3.301h-1.681c-1.656 0-2.173 1.034-2.173 2.095v2.516h3.698l-.591 3.878h-3.107v9.374c6.374-1.006 11.25-6.556 11.25-13.252z"/>
    </symbol>
    <symbol id="instagram" viewBox="0 0 32 32">
      <path d="M15.998 6.161c3.206 0 3.585.014 4.846.071 1.172.052 1.804.248 2.226.412.558.216.961.478 1.378.895.422.422.679.82.9 1.378.164.422.361 1.059.412 2.226.056 1.266.071 1.645.071 4.847s-.014 3.585-.071 4.847c-.052 1.172-.248 1.804-.412 2.227a3.702 3.702 0 0 1-.895 1.377c-.422.422-.82.679-1.378.9-.422.164-1.06.361-2.226.412-1.266.056-1.645.071-4.847.071s-3.585-.014-4.847-.071c-1.172-.052-1.804-.248-2.226-.412a3.714 3.714 0 0 1-1.378-.895 3.767 3.767 0 0 1-.9-1.378c-.164-.422-.361-1.06-.412-2.226-.056-1.266-.071-1.645-.071-4.847s.014-3.585.071-4.847c.052-1.172.248-1.804.412-2.226.216-.558.478-.961.895-1.378.422-.422.82-.679 1.378-.9.422-.164 1.059-.361 2.226-.412 1.261-.056 1.641-.071 4.847-.071h.001zm0-2.16c-3.258 0-3.665.014-4.945.071-1.275.056-2.151.262-2.91.558a5.847 5.847 0 0 0-2.127 1.387A5.883 5.883 0 0 0 4.629 8.14c-.295.764-.502 1.636-.558 2.91C4.015 12.335 4 12.742 4 15.999s.014 3.665.071 4.945c.056 1.275.262 2.151.558 2.91a5.86 5.86 0 0 0 1.387 2.127 5.876 5.876 0 0 0 2.123 1.383c.764.295 1.636.502 2.91.558 1.279.056 1.687.071 4.945.071s3.666-.014 4.945-.071c1.275-.056 2.151-.262 2.91-.558.787-.305 1.458-.717 2.123-1.383s1.078-1.336 1.383-2.123c.295-.764.502-1.635.558-2.91.056-1.279.071-1.687.071-4.945s-.014-3.665-.071-4.945c-.056-1.275-.262-2.151-.558-2.91a5.622 5.622 0 0 0-1.373-2.133 5.876 5.876 0 0 0-2.123-1.383c-.764-.295-1.635-.502-2.91-.558-1.284-.061-1.692-.075-4.949-.075L15.999 4z"/>
      <path d="M15.998 9.836a6.164 6.164 0 1 0 6.163 6.163 6.164 6.164 0 0 0-6.163-6.163zm0 10.161a3.998 3.998 0 1 1 0-7.996 3.998 3.998 0 0 1 0 7.996zM23.843 9.592a1.439 1.439 0 1 1-2.877 0 1.439 1.439 0 0 1 2.877 0z"/>
    </symbol>
    <symbol id="twitter" viewBox="0 0 32 32">
      <path d="M22.901 5.657h3.68l-8.04 9.037L28 26.991h-7.406l-5.801-7.458-6.637 7.458H4.474l8.6-9.666L4 5.657h7.594l5.243 6.817 6.064-6.817zM21.61 24.824h2.039L10.486 7.709H8.298L21.61 24.824z"/>
    </symbol>
    <symbol id="linkedIn" viewBox="0 0 32 32">
      <path d="M25.75 4H6.25A2.257 2.257 0 0 0 4 6.25v19.5A2.257 2.257 0 0 0 6.25 28h19.5A2.257 2.257 0 0 0 28 25.75V6.25A2.257 2.257 0 0 0 25.75 4zM13 23.5h-3V13h3v10.5zm-1.5-12a1.5 1.5 0 1 1-.001-2.999A1.5 1.5 0 0 1 11.5 11.5zm12 12h-3v-6a1.5 1.5 0 1 0-3 0v6h-3V13h3v1.861c.619-.848 1.565-1.861 2.625-1.861 1.866 0 3.375 1.679 3.375 3.75v6.75z"/>
    </symbol>
    <symbol id="youtube" viewBox="0 0 32 32">
      <path d="M28.791 9.604a3.345 3.345 0 0 0-2.35-2.354C24.353 6.677 16 6.667 16 6.667s-8.352-.009-10.441.539a3.416 3.416 0 0 0-2.354 2.371c-.551 2.088-.556 6.419-.556 6.419s-.005 4.352.541 6.419a3.341 3.341 0 0 0 2.351 2.353c2.109.573 10.44.583 10.44.583s8.353.009 10.441-.537a3.356 3.356 0 0 0 2.356-2.35c.552-2.087.556-6.416.556-6.416s.027-4.353-.543-6.441zM13.328 20.007l.007-8 6.943 4.007-6.949 3.993z"/>
    </symbol>
    <symbol id="menu" viewBox="0 0 32 32">
      <path d="M5.333 8h21.333v2.667H5.333V8zm0 6.667h21.333v2.667H5.333v-2.667zm0 6.666h21.333V24H5.333v-2.667z"/>
    </symbol>
    <symbol id="icon-close" viewBox="0 0 32 32">
      <path d="m21.589 8.459-5.657 5.656-5.656-5.656-1.885 1.885L14.047 16l-5.656 5.656 1.885 1.885 5.656-5.656 5.657 5.656 1.885-1.885L17.818 16l5.656-5.656-1.885-1.885z"/>
    </symbol>
  </defs>
</svg>
