<svg aria-hidden="true" style="position: absolute; width: 0; height: 0; overflow: hidden;" version="1.1"
    xmlns="http://www.w3.org/2000/svg" xmlns:xlink="http://www.w3.org/1999/xlink">
    <defs>
        <symbol id="icon-logo-desk" viewBox="0 0 75 32">
            <path
                d="M16.441 10.036l0.134 0.112 0.098 0.082 0.434 0.361 0.001 10.078c-2.31 1.907-4.634 3.797-6.972 5.669-0.148-0.015-4-3.182-5.956-4.791l-0.055-0.045c-0.501-0.412-0.87-0.715-1.006-0.825l-0.007-10.080 6.965-5.707c0.227 0.032 4.575 3.656 6.364 5.147zM13.433 12.095l-0.008-0.013-0.001-0.002-0.011-0.018c-1.145-1.852-3.15-5.096-3.322-5.22l-4.042 6.44 0.009 4.47 0.813 1.334c0.356 0.051 0.715 0.109 1.075 0.167 0.73 0.118 1.466 0.237 2.191 0.297l0.967-0.145c0.747-0.113 1.494-0.226 2.242-0.326l0.815-1.266-0-4.543c-0.097-0.152-0.369-0.592-0.729-1.175zM14.464 13.811c0.284 0.355 0.529 0.791 0.765 1.214 0.068 0.122 0.136 0.242 0.204 0.359 0.034 0.058 0.067 0.116 0.101 0.172l-0.136 0.222-0.141 0.229c-0.123 0.199-0.246 0.397-0.371 0.595l-0.43 0.698c-0-0.336-0.003-0.672-0.006-1.008-0.007-0.827-0.014-1.656 0.014-2.481zM11.239 6.148c-0.334-0.294-0.744-0.654-0.99-0.758l0.007 0.331c0.006 0.26 0.012 0.52 0.014 0.779 1.284 2.072 2.578 4.137 3.883 6.196-0-0.063-0.003-0.162-0.006-0.284v-0.020c-0.016-0.58-0.044-1.635 0.104-1.79 0.004-0.004 0.008-0.008 0.013-0.012l0.011-0.009 0.011-0.009 0.13 0.057c0.101 0.458 0.076 1.173 0.055 1.81l-0 0.009-0.001 0.039c-0.009 0.265-0.017 0.516-0.014 0.726 0.172 0.287 0.348 0.573 0.524 0.858 0.306 0.496 0.612 0.993 0.896 1.499l-1.418 2.277 0.003 1.459v1.124l2.352 0.001-0.005-9.697c-1.724-1.45-3.464-2.879-5.222-4.288l-0.054-0.044-0.050-0.042c-0.073-0.062-0.155-0.135-0.243-0.212zM9.911 5.407l0.034 0.029c0.068 0.202 0.049 0.513 0.033 0.783-0.006 0.099-0.012 0.192-0.013 0.273l-3.923 6.26c0.001-0.097 0.004-0.199 0.008-0.305l0.004-0.097 0.008-0.19c0.020-0.473 0.041-0.981-0.011-1.379-0.015-0.111-0.048-0.152-0.134-0.217l-0.091 0.017c-0.137 0.213-0.098 1.533-0.076 2.253l0.006 0.222c0.002 0.065 0.003 0.119 0.003 0.16-0.471 0.769-0.935 1.543-1.393 2.32l1.396 2.289-0.006 1.309-0.005 1.296-2.344-0.003 0.009-9.689c1.397-1.205 2.837-2.367 4.276-3.529 0.742-0.599 1.485-1.198 2.22-1.802zM8.405 19.615c-0.441-0.079-0.882-0.157-1.32-0.193l0.339 0.544c0.904 1.451 1.81 2.906 2.675 4.378 0.438-0.707 0.872-1.417 1.301-2.129 0.194-0.313 0.387-0.627 0.579-0.942 0.381-0.622 0.763-1.245 1.157-1.859-0.245 0.035-0.538 0.085-0.849 0.139-0.772 0.133-1.659 0.286-2.239 0.271-0.545-0.015-1.094-0.113-1.643-0.211zM6.044 19.265l0.664 0.096c0.445 0.738 0.898 1.472 1.351 2.206l0.002 0.003 0.012 0.020c0.635 1.029 1.269 2.058 1.883 3.1-0 0.162 0 0.325 0.001 0.487 0.002 0.233 0.005 0.465 0.010 0.698l-1.324-1.083-4.997-4.076c0.561 0.008 1.122 0.006 1.683 0.004 0.237-0.001 0.474-0.001 0.71-0.001 0.013-0.484 0.004-0.969 0.003-1.454zM13.997 19.287l-0.025 0.002-0.46 0.071-3.251 5.291-0.013 1.22c0.21-0.171 0.419-0.341 0.629-0.511 0.263-0.212 0.527-0.424 0.791-0.635 1.645-1.32 3.277-2.656 4.895-4.009l-2.4 0.003c0.001-0.107 0.006-0.219 0.011-0.333l0.001-0.010c0.015-0.354 0.030-0.728-0.041-1.051-0.063-0.047-0.071-0.046-0.12-0.040l-0.019 0.002zM5.76 17.156l-0.001 0.109-0.347-0.567c-0.148-0.271-0.313-0.537-0.477-0.802-0.073-0.118-0.146-0.236-0.218-0.354 0.203-0.381 0.426-0.753 0.648-1.125l0.17-0.285c0.056-0.095 0.112-0.189 0.167-0.284 0.116 0.177 0.082 2.004 0.064 2.938-0.003 0.15-0.005 0.277-0.006 0.37zM13.847 18.966l0.060-0.108c0.106-0.19 0.213-0.381 0.35-0.55 0.012 0.175-0.001 0.413-0.032 0.556-0.172 0.063-0.242 0.086-0.378 0.102zM6.061 18.367c0.163 0.201 0.283 0.433 0.41 0.658-0.047-0.006-0.068-0.007-0.089-0.011-0.040-0.008-0.078-0.024-0.289-0.091-0.032-0.203-0.044-0.381-0.032-0.556z">
            </path>
            <path
                d="M13.433 12.095c-0.143-0.231-0.299-0.484-0.464-0.751 0.162 0.262 0.316 0.511 0.456 0.738l0.008 0.013z">
            </path>
            <path d="M14.154 12.695c-0-0.066-0.003-0.169-0.007-0.297v0.007c0.003 0.124 0.006 0.226 0.007 0.29z"></path>
            <path
                d="M6.052 12.377c-0.005 0.131-0.009 0.257-0.010 0.375 0.001-0.097 0.004-0.199 0.008-0.305 0.001-0.023 0.002-0.047 0.003-0.070zM5.758 13.217c-0.001-0.081-0.005-0.215-0.010-0.383l0.006 0.223c0.002 0.065 0.003 0.119 0.003 0.16z">
            </path>
            <path
                d="M14.167 20.65c0.002-0.089 0.006-0.181 0.010-0.274l-0.001 0.010c-0.004 0.090-0.007 0.178-0.009 0.265z">
            </path>
            <path
                d="M5.702 13.848c-0.066 0.114-0.134 0.228-0.202 0.342l0.035-0.058c0.056-0.095 0.112-0.189 0.167-0.284zM5.758 17.264c0-0.114 0.005-0.371 0.011-0.696-0.001 0.076-0.003 0.149-0.004 0.217-0.004 0.221-0.007 0.391-0.007 0.479z">
            </path>
            <path
                d="M49.529 24.874v-0.667h0.677c0.232 0 0.431-0.030 0.597-0.090 0.166-0.053 0.305-0.149 0.418-0.289s0.209-0.332 0.289-0.577l1.772-5.695h0.727l-1.852 5.904c-0.106 0.338-0.252 0.611-0.438 0.816-0.186 0.212-0.408 0.365-0.667 0.458s-0.554 0.139-0.886 0.139h-0.637zM51.241 22.694v-0.627h0.946v0.627h-0.946zM51.151 22.694l-1.911-5.137h0.767l1.842 5.137h-0.697z">
            </path>
            <path
                d="M45.906 22.823v-5.267h0.597v2.2h-0.060c0-0.77 0.169-1.337 0.508-1.702 0.339-0.372 0.87-0.558 1.593-0.558h0.169v0.677h-0.309c-0.571 0-1.005 0.149-1.304 0.448-0.299 0.292-0.448 0.723-0.448 1.294v2.907h-0.747z">
            </path>
            <path d="M43.323 22.823v-7.268h0.747v7.268h-0.747zM42.557 16.163v-0.607h1.513v0.607h-1.513z"></path>
            <path
                d="M39.507 22.992c-0.451 0-0.843-0.076-1.175-0.229-0.332-0.159-0.604-0.368-0.816-0.627-0.212-0.265-0.372-0.561-0.478-0.886-0.1-0.325-0.149-0.66-0.149-1.006v-0.139c0-0.338 0.050-0.67 0.149-0.996 0.106-0.325 0.266-0.617 0.478-0.876s0.478-0.465 0.796-0.617c0.325-0.159 0.704-0.239 1.135-0.239 0.551 0 1.009 0.123 1.374 0.368 0.372 0.246 0.65 0.561 0.836 0.946 0.186 0.378 0.279 0.787 0.279 1.225v0.388h-4.709v-0.577h4.191l-0.189 0.289c0-0.392-0.070-0.733-0.209-1.025-0.133-0.299-0.332-0.531-0.597-0.697-0.259-0.173-0.584-0.259-0.976-0.259-0.411 0-0.753 0.096-1.025 0.289s-0.478 0.448-0.617 0.767c-0.133 0.319-0.199 0.68-0.199 1.085 0 0.398 0.066 0.763 0.199 1.095 0.139 0.325 0.348 0.584 0.627 0.777 0.285 0.193 0.644 0.289 1.075 0.289 0.458 0 0.83-0.103 1.115-0.309 0.285-0.212 0.461-0.461 0.528-0.747h0.697c-0.066 0.352-0.206 0.657-0.418 0.916-0.212 0.252-0.481 0.448-0.806 0.587s-0.697 0.209-1.115 0.209z">
            </path>
            <path
                d="M25.941 23.418c-0.451 0-0.843-0.076-1.175-0.229-0.332-0.159-0.604-0.368-0.816-0.627-0.212-0.265-0.372-0.561-0.478-0.886-0.1-0.325-0.149-0.66-0.149-1.006v-0.139c0-0.338 0.050-0.67 0.149-0.996 0.106-0.325 0.265-0.617 0.478-0.876s0.478-0.465 0.796-0.617c0.325-0.159 0.704-0.239 1.135-0.239 0.551 0 1.009 0.123 1.374 0.368 0.372 0.246 0.65 0.561 0.836 0.946 0.186 0.378 0.279 0.787 0.279 1.225v0.388h-4.709v-0.577h4.191l-0.189 0.289c0-0.392-0.070-0.733-0.209-1.025-0.133-0.299-0.332-0.531-0.597-0.697-0.259-0.173-0.584-0.259-0.976-0.259-0.411 0-0.753 0.096-1.025 0.289s-0.478 0.448-0.617 0.767c-0.133 0.319-0.199 0.68-0.199 1.085 0 0.398 0.066 0.763 0.199 1.095 0.139 0.325 0.348 0.584 0.627 0.777 0.285 0.192 0.644 0.289 1.075 0.289 0.458 0 0.83-0.103 1.115-0.309 0.285-0.212 0.461-0.461 0.528-0.747h0.697c-0.066 0.352-0.206 0.657-0.418 0.916-0.212 0.252-0.481 0.448-0.806 0.587s-0.697 0.209-1.115 0.209z">
            </path>
            <path
                d="M19.792 25.27v-0.667h0.597c0.259 0 0.455-0.076 0.587-0.229 0.139-0.146 0.209-0.358 0.209-0.637v-5.754h0.717v5.615c0 0.412-0.056 0.74-0.169 0.986-0.106 0.246-0.279 0.421-0.518 0.528s-0.558 0.159-0.956 0.159h-0.468zM20.329 18.58v-0.597h1.573v0.597h-1.573zM21.325 16.917c-0.179 0-0.315-0.046-0.408-0.139-0.086-0.1-0.129-0.222-0.129-0.368s0.043-0.265 0.129-0.358c0.093-0.1 0.229-0.149 0.408-0.149s0.312 0.050 0.398 0.149c0.086 0.093 0.129 0.212 0.129 0.358s-0.043 0.269-0.129 0.368c-0.086 0.093-0.219 0.139-0.398 0.139z">
            </path>
            <path
                d="M69.453 14.936c-0.451 0-0.843-0.076-1.175-0.229-0.332-0.159-0.604-0.368-0.816-0.627-0.212-0.265-0.372-0.561-0.478-0.886-0.1-0.325-0.149-0.66-0.149-1.005v-0.139c0-0.338 0.050-0.67 0.149-0.996 0.106-0.325 0.265-0.617 0.478-0.876s0.478-0.465 0.796-0.617c0.325-0.159 0.703-0.239 1.135-0.239 0.551 0 1.009 0.123 1.374 0.368 0.372 0.246 0.65 0.561 0.836 0.946 0.186 0.378 0.279 0.787 0.279 1.225v0.388h-4.709v-0.577h4.191l-0.189 0.289c0-0.392-0.070-0.733-0.209-1.025-0.133-0.299-0.332-0.531-0.597-0.697-0.259-0.173-0.584-0.259-0.976-0.259-0.412 0-0.753 0.096-1.025 0.289s-0.478 0.448-0.617 0.767c-0.133 0.319-0.199 0.68-0.199 1.085 0 0.398 0.066 0.763 0.199 1.095 0.139 0.325 0.348 0.584 0.627 0.777 0.285 0.193 0.644 0.289 1.075 0.289 0.458 0 0.83-0.103 1.115-0.309 0.285-0.212 0.461-0.461 0.528-0.747h0.697c-0.066 0.352-0.206 0.657-0.418 0.916-0.212 0.252-0.481 0.448-0.806 0.587s-0.697 0.209-1.115 0.209z">
            </path>
            <path
                d="M62.707 14.936c-0.385 0-0.737-0.070-1.055-0.209-0.312-0.146-0.584-0.345-0.816-0.597-0.226-0.259-0.401-0.551-0.528-0.876-0.119-0.332-0.179-0.684-0.179-1.055v-0.139c0-0.358 0.060-0.7 0.179-1.025 0.119-0.332 0.289-0.624 0.508-0.876 0.226-0.259 0.495-0.461 0.806-0.607 0.319-0.153 0.674-0.229 1.065-0.229 0.445 0 0.836 0.096 1.175 0.289s0.611 0.471 0.816 0.836c0.206 0.358 0.315 0.8 0.329 1.324l-0.329-0.617v-3.654h0.747v7.268h-0.597v-2.34h0.239c-0.013 0.551-0.129 1.015-0.348 1.394-0.212 0.372-0.494 0.65-0.846 0.836-0.345 0.186-0.733 0.279-1.165 0.279zM62.807 14.279c0.358 0 0.68-0.080 0.966-0.239 0.292-0.159 0.521-0.385 0.687-0.677 0.166-0.299 0.249-0.64 0.249-1.025v-0.478c0-0.372-0.083-0.697-0.249-0.976-0.166-0.285-0.395-0.508-0.687-0.667-0.285-0.159-0.611-0.239-0.976-0.239-0.392 0-0.733 0.096-1.025 0.289-0.285 0.186-0.508 0.441-0.667 0.767-0.153 0.325-0.229 0.69-0.229 1.095 0 0.418 0.080 0.79 0.239 1.115s0.385 0.581 0.677 0.767c0.292 0.179 0.631 0.269 1.015 0.269z">
            </path>
            <path
                d="M58.184 14.767v-1.583h-0.119v-1.872c0-0.392-0.103-0.69-0.309-0.896-0.206-0.212-0.524-0.319-0.956-0.319-0.199 0-0.401 0.003-0.607 0.010-0.199 0.007-0.392 0.017-0.577 0.030-0.179 0.007-0.339 0.017-0.478 0.030v-0.657c0.146-0.013 0.295-0.027 0.448-0.040s0.309-0.020 0.468-0.020c0.166-0.007 0.325-0.010 0.478-0.010 0.538 0 0.969 0.066 1.294 0.199 0.332 0.133 0.574 0.342 0.727 0.627 0.153 0.279 0.229 0.65 0.229 1.115v3.385h-0.597zM56.402 14.906c-0.372 0-0.7-0.066-0.986-0.199s-0.508-0.325-0.667-0.577c-0.153-0.252-0.229-0.557-0.229-0.916 0-0.352 0.080-0.65 0.239-0.896 0.166-0.246 0.402-0.431 0.707-0.557 0.312-0.133 0.687-0.199 1.125-0.199h1.543v0.567h-1.593c-0.418 0-0.74 0.103-0.966 0.309-0.219 0.199-0.329 0.461-0.329 0.787 0 0.332 0.116 0.597 0.348 0.796 0.232 0.192 0.548 0.289 0.946 0.289 0.246 0 0.481-0.043 0.707-0.129 0.226-0.093 0.415-0.246 0.567-0.458 0.153-0.219 0.236-0.518 0.249-0.896l0.219 0.309c-0.026 0.392-0.119 0.72-0.279 0.986-0.159 0.259-0.375 0.455-0.647 0.587s-0.591 0.199-0.956 0.199z">
            </path>
            <path
                d="M45.502 14.767v-5.276h0.597v2.22h-0.119c0-0.485 0.066-0.903 0.199-1.254 0.139-0.352 0.345-0.624 0.617-0.816 0.272-0.199 0.617-0.299 1.035-0.299h0.030c0.418 0 0.763 0.096 1.035 0.289s0.474 0.465 0.607 0.816c0.133 0.352 0.199 0.773 0.199 1.264h-0.239c0-0.485 0.066-0.903 0.199-1.254 0.139-0.352 0.345-0.624 0.617-0.816 0.279-0.199 0.627-0.299 1.045-0.299h0.030c0.418 0 0.763 0.096 1.035 0.289 0.279 0.192 0.484 0.465 0.617 0.816 0.139 0.352 0.209 0.773 0.209 1.264v3.056h-0.747v-3.226c0-0.465-0.113-0.833-0.339-1.105s-0.551-0.408-0.976-0.408c-0.438 0-0.786 0.143-1.045 0.428-0.252 0.279-0.378 0.657-0.378 1.135v3.176h-0.747v-3.226c0-0.465-0.113-0.833-0.339-1.105s-0.551-0.408-0.976-0.408c-0.438 0-0.786 0.143-1.045 0.428-0.252 0.279-0.378 0.657-0.378 1.135v3.176h-0.747z">
            </path>
            <path
                d="M40.956 14.936c-0.385 0-0.737-0.070-1.055-0.209-0.312-0.146-0.584-0.345-0.816-0.597-0.226-0.259-0.401-0.551-0.528-0.876-0.119-0.332-0.179-0.684-0.179-1.055v-0.139c0-0.358 0.060-0.7 0.179-1.025 0.119-0.332 0.289-0.624 0.508-0.876 0.226-0.259 0.495-0.461 0.806-0.607 0.319-0.153 0.674-0.229 1.065-0.229 0.445 0 0.836 0.096 1.175 0.289s0.611 0.471 0.816 0.836c0.206 0.358 0.315 0.8 0.329 1.324l-0.329-0.617v-3.654h0.747v7.268h-0.597v-2.34h0.239c-0.013 0.551-0.129 1.015-0.348 1.394-0.212 0.372-0.495 0.65-0.846 0.836-0.345 0.186-0.733 0.279-1.165 0.279zM41.056 14.279c0.358 0 0.68-0.080 0.966-0.239 0.292-0.159 0.521-0.385 0.687-0.677 0.166-0.299 0.249-0.64 0.249-1.025v-0.478c0-0.372-0.083-0.697-0.249-0.976-0.166-0.285-0.395-0.508-0.687-0.667-0.285-0.159-0.611-0.239-0.976-0.239-0.392 0-0.733 0.096-1.025 0.289-0.285 0.186-0.508 0.441-0.667 0.767-0.153 0.325-0.229 0.69-0.229 1.095 0 0.418 0.080 0.79 0.239 1.115s0.385 0.581 0.677 0.767c0.292 0.179 0.63 0.269 1.015 0.269z">
            </path>
            <path
                d="M32.576 14.767v-5.266h0.597v2.21h-0.119c0-0.491 0.073-0.913 0.219-1.264s0.365-0.624 0.657-0.816c0.292-0.192 0.66-0.289 1.105-0.289h0.030c0.664 0 1.158 0.209 1.483 0.627 0.325 0.411 0.488 0.992 0.488 1.742v3.056h-0.737v-3.216c0-0.458-0.126-0.826-0.378-1.105s-0.604-0.418-1.055-0.418c-0.465 0-0.84 0.146-1.125 0.438-0.279 0.285-0.418 0.664-0.418 1.135v3.166h-0.747z">
            </path>
            <path
                d="M30.213 14.767v-1.583h-0.119v-1.872c0-0.392-0.103-0.69-0.309-0.896-0.206-0.212-0.524-0.319-0.956-0.319-0.199 0-0.402 0.003-0.607 0.010-0.199 0.007-0.392 0.017-0.577 0.030-0.179 0.007-0.338 0.017-0.478 0.030v-0.657c0.146-0.013 0.295-0.027 0.448-0.040s0.309-0.020 0.468-0.020c0.166-0.007 0.325-0.010 0.478-0.010 0.538 0 0.969 0.066 1.294 0.199 0.332 0.133 0.574 0.342 0.727 0.627 0.153 0.279 0.229 0.65 0.229 1.115v3.385h-0.597zM28.431 14.906c-0.372 0-0.7-0.066-0.986-0.199s-0.508-0.325-0.667-0.577c-0.153-0.252-0.229-0.557-0.229-0.916 0-0.352 0.080-0.65 0.239-0.896 0.166-0.246 0.401-0.431 0.707-0.557 0.312-0.133 0.687-0.199 1.125-0.199h1.543v0.567h-1.593c-0.418 0-0.74 0.103-0.966 0.309-0.219 0.199-0.329 0.461-0.329 0.787 0 0.332 0.116 0.597 0.348 0.796 0.232 0.192 0.548 0.289 0.946 0.289 0.245 0 0.481-0.043 0.707-0.129 0.226-0.093 0.415-0.246 0.567-0.458 0.153-0.219 0.236-0.518 0.249-0.896l0.219 0.309c-0.027 0.392-0.119 0.72-0.279 0.986-0.159 0.259-0.375 0.455-0.647 0.587s-0.591 0.199-0.956 0.199z">
            </path>
            <path
                d="M20.788 14.767v-7.268h0.747v4.112l-0.219 0.169c0-0.491 0.070-0.919 0.209-1.284 0.146-0.365 0.362-0.647 0.647-0.846 0.292-0.206 0.657-0.309 1.095-0.309h0.040c0.637 0 1.118 0.209 1.444 0.627 0.332 0.418 0.498 0.999 0.498 1.742v3.056h-0.737v-3.216c0-0.471-0.129-0.843-0.388-1.115s-0.607-0.408-1.045-0.408c-0.471 0-0.846 0.153-1.125 0.458-0.279 0.299-0.418 0.694-0.418 1.185v3.096h-0.747z">
            </path>
            <path
                d="M31.153 22.666l1.045-4.733h0.971l1.211 4.733h-0.601l-1.211-4.705h0.222l-1.054 4.705h-0.582zM30.756 22.666v-0.564h0.841v0.564h-0.841zM30.589 22.666l-1.414-4.89h0.666l1.396 4.89h-0.647zM33.936 22.666v-0.564h0.823v0.564h-0.823zM34.296 22.666l1.22-4.89h0.638l-1.248 4.89h-0.61z">
            </path>
        </symbol>
        <symbol id="icon-logo-tab" viewBox="0 0 74 32">
            <path
                d="M16.393 10.007l0.012 0.010 0.652 0.542 0.001 10.049c-2.303 1.902-4.621 3.786-6.952 5.652-0.148-0.015-3.988-3.173-5.939-4.777l-0.054-0.045c-0.5-0.411-0.867-0.713-1.003-0.823l-0.007-10.050 6.945-5.69c0.226 0.032 4.562 3.645 6.346 5.132zM13.394 12.060l-0.008-0.013-0.001-0.002-0.011-0.017c-1.141-1.847-3.141-5.082-3.312-5.204l-4.030 6.421 0.009 4.457 0.81 1.33c0.355 0.051 0.713 0.108 1.072 0.166 0.728 0.118 1.461 0.236 2.184 0.296l0.964-0.145c0.745-0.113 1.49-0.225 2.236-0.325l0.813-1.263-0-4.53c-0.097-0.152-0.368-0.591-0.727-1.172zM14.422 13.771c0.284 0.354 0.527 0.789 0.763 1.21 0.068 0.121 0.136 0.241 0.203 0.358 0.034 0.058 0.067 0.115 0.101 0.171l-0.135 0.221-0.141 0.228c-0.123 0.198-0.246 0.396-0.37 0.594l-0.429 0.696c-0-0.335-0.003-0.67-0.006-1.005-0.007-0.825-0.013-1.651 0.014-2.473zM11.206 6.13c-0.333-0.293-0.742-0.652-0.987-0.756l0.007 0.33c0.006 0.259 0.012 0.518 0.014 0.777 1.28 2.066 2.571 4.125 3.872 6.178-0-0.063-0.003-0.162-0.006-0.283v-0.020c-0.015-0.578-0.044-1.63 0.104-1.785 0.004-0.004 0.008-0.008 0.013-0.012l0.022-0.018 0.13 0.057c0.1 0.457 0.076 1.17 0.055 1.805l-0 0.009-0.001 0.039c-0.009 0.265-0.017 0.514-0.014 0.724 0.171 0.286 0.347 0.571 0.522 0.856 0.305 0.495 0.611 0.99 0.894 1.495l-1.414 2.27 0.003 1.455v1.12l2.345 0.001-0.005-9.669c-1.719-1.446-3.454-2.871-5.206-4.275l-0.054-0.044-0.050-0.042c-0.073-0.062-0.155-0.134-0.243-0.211zM9.882 5.392l0.034 0.029c0.068 0.201 0.049 0.512 0.033 0.781-0.006 0.099-0.012 0.192-0.013 0.272l-3.911 6.242c0.001-0.097 0.004-0.198 0.008-0.304l0.004-0.097 0.008-0.189c0.020-0.472 0.041-0.978-0.011-1.375-0.015-0.111-0.048-0.151-0.134-0.216l-0.090 0.017c-0.137 0.213-0.097 1.529-0.076 2.246l0.006 0.222c0.002 0.065 0.003 0.119 0.003 0.16-0.469 0.767-0.932 1.538-1.389 2.313l1.392 2.283-0.006 1.305-0.005 1.292-2.338-0.003 0.009-9.661c1.393-1.201 2.829-2.36 4.264-3.519 0.74-0.597 1.48-1.195 2.214-1.797zM8.381 19.558c-0.44-0.078-0.879-0.157-1.316-0.192l0.338 0.543c0.901 1.447 1.805 2.897 2.667 4.366 0.437-0.705 0.87-1.412 1.298-2.122 0.194-0.312 0.386-0.625 0.578-0.939 0.38-0.621 0.761-1.242 1.154-1.853-0.245 0.035-0.536 0.085-0.846 0.138-0.769 0.133-1.654 0.285-2.233 0.27-0.543-0.015-1.091-0.112-1.638-0.21zM6.026 19.209l0.662 0.096c0.444 0.736 0.895 1.468 1.347 2.2l0.002 0.003 0.012 0.020c0.633 1.026 1.266 2.052 1.878 3.091-0 0.162 0 0.324 0.001 0.485 0.002 0.232 0.005 0.464 0.010 0.696l-1.32-1.080-4.982-4.064c0.559 0.008 1.119 0.006 1.678 0.004 0.236-0.001 0.472-0.001 0.708-0.001 0.013-0.483 0.004-0.966 0.003-1.449zM13.957 19.23l-0.025 0.002-0.458 0.071-3.241 5.275-0.013 1.217c0.209-0.17 0.418-0.34 0.628-0.509 0.262-0.212 0.525-0.423 0.789-0.633 1.64-1.316 3.267-2.649 4.881-3.998l-2.393 0.003c0.001-0.107 0.006-0.218 0.010-0.332l0.001-0.010c0.015-0.353 0.030-0.726-0.040-1.048-0.063-0.047-0.071-0.046-0.119-0.040l-0.019 0.002zM5.743 17.106l-0.001 0.108-0.346-0.566c-0.147-0.271-0.312-0.536-0.475-0.8-0.073-0.118-0.146-0.235-0.217-0.353 0.202-0.38 0.424-0.751 0.646-1.121l0.17-0.284c0.056-0.094 0.112-0.188 0.166-0.283 0.116 0.176 0.081 1.998 0.064 2.929-0.003 0.149-0.005 0.276-0.006 0.369zM13.806 18.91l0.060-0.107c0.106-0.19 0.212-0.38 0.349-0.549 0.012 0.174-0.001 0.412-0.032 0.554-0.172 0.063-0.242 0.085-0.377 0.102zM6.043 18.314c0.163 0.201 0.282 0.432 0.409 0.656-0.047-0.006-0.068-0.007-0.089-0.011-0.040-0.008-0.078-0.024-0.288-0.090-0.032-0.202-0.044-0.38-0.032-0.554z">
            </path>
            <path
                d="M13.394 12.060c-0.142-0.23-0.298-0.483-0.463-0.749 0.161 0.261 0.315 0.509 0.455 0.736l0.008 0.013z">
            </path>
            <path d="M14.113 12.658c-0-0.065-0.003-0.169-0.006-0.296v0.006c0.003 0.124 0.006 0.225 0.006 0.289z"></path>
            <path
                d="M6.034 12.341c-0.005 0.13-0.009 0.256-0.010 0.373 0.001-0.097 0.004-0.198 0.008-0.304 0.001-0.023 0.002-0.046 0.003-0.070zM5.741 13.178c-0.001-0.081-0.005-0.215-0.010-0.381l0.006 0.222c0.002 0.065 0.003 0.119 0.003 0.16z">
            </path>
            <path
                d="M14.125 20.59c0.002-0.089 0.006-0.181 0.010-0.274l-0.001 0.010c-0.004 0.090-0.007 0.178-0.009 0.264z">
            </path>
            <path
                d="M5.685 13.807c-0.066 0.114-0.133 0.227-0.201 0.341l0.035-0.058c0.056-0.094 0.112-0.188 0.166-0.283zM5.742 17.214c0-0.114 0.005-0.37 0.011-0.694-0.001 0.076-0.003 0.149-0.004 0.216-0.004 0.22-0.007 0.39-0.007 0.477z">
            </path>
            <path
                d="M49.385 24.801v-0.665h0.675c0.232 0 0.43-0.030 0.596-0.089 0.165-0.053 0.304-0.149 0.417-0.288s0.209-0.331 0.288-0.576l1.767-5.678h0.725l-1.846 5.886c-0.106 0.338-0.252 0.609-0.437 0.814-0.185 0.212-0.407 0.364-0.665 0.456s-0.553 0.139-0.883 0.139h-0.635zM51.092 22.627v-0.625h0.943v0.625h-0.943zM51.003 22.627l-1.906-5.122h0.764l1.836 5.122h-0.695z">
            </path>
            <path
                d="M45.772 22.756v-5.251h0.596v2.194h-0.060c0-0.768 0.169-1.333 0.506-1.697 0.337-0.371 0.867-0.556 1.588-0.556h0.169v0.675h-0.308c-0.569 0-1.002 0.149-1.3 0.447-0.298 0.291-0.447 0.721-0.447 1.29v2.899h-0.745z">
            </path>
            <path d="M43.197 22.757v-7.246h0.745v7.246h-0.745zM42.433 16.116v-0.606h1.509v0.606h-1.509z"></path>
            <path
                d="M39.392 22.925c-0.45 0-0.84-0.076-1.171-0.228-0.331-0.159-0.602-0.367-0.814-0.625-0.212-0.265-0.37-0.559-0.477-0.884-0.099-0.324-0.149-0.658-0.149-1.003v-0.139c0-0.337 0.050-0.668 0.149-0.993 0.106-0.324 0.265-0.615 0.477-0.874s0.477-0.463 0.794-0.615c0.324-0.159 0.701-0.238 1.132-0.238 0.549 0 1.006 0.122 1.37 0.367 0.371 0.245 0.648 0.559 0.834 0.943 0.185 0.377 0.278 0.784 0.278 1.221v0.387h-4.695v-0.576h4.179l-0.189 0.288c0-0.39-0.069-0.731-0.209-1.022-0.132-0.298-0.331-0.529-0.596-0.695-0.258-0.172-0.582-0.258-0.973-0.258-0.41 0-0.751 0.096-1.022 0.288s-0.477 0.447-0.616 0.764c-0.132 0.318-0.199 0.678-0.199 1.082 0 0.397 0.066 0.761 0.199 1.092 0.139 0.324 0.347 0.582 0.625 0.774 0.285 0.192 0.642 0.288 1.072 0.288 0.457 0 0.827-0.103 1.112-0.308 0.285-0.212 0.46-0.46 0.526-0.744h0.695c-0.066 0.351-0.205 0.655-0.417 0.913-0.212 0.251-0.48 0.447-0.804 0.586s-0.695 0.208-1.112 0.208z">
            </path>
            <path
                d="M25.866 23.35c-0.45 0-0.84-0.076-1.171-0.228-0.331-0.159-0.602-0.367-0.814-0.625-0.212-0.265-0.37-0.559-0.477-0.884-0.099-0.324-0.149-0.658-0.149-1.003v-0.139c0-0.337 0.050-0.668 0.149-0.993 0.106-0.324 0.265-0.615 0.477-0.874s0.477-0.463 0.794-0.615c0.324-0.159 0.701-0.238 1.132-0.238 0.549 0 1.006 0.122 1.37 0.367 0.371 0.245 0.648 0.559 0.834 0.943 0.185 0.377 0.278 0.784 0.278 1.221v0.387h-4.695v-0.576h4.179l-0.189 0.288c0-0.39-0.069-0.731-0.209-1.022-0.132-0.298-0.331-0.529-0.596-0.695-0.258-0.172-0.582-0.258-0.973-0.258-0.41 0-0.751 0.096-1.022 0.288s-0.477 0.447-0.616 0.764c-0.132 0.318-0.199 0.678-0.199 1.082 0 0.397 0.066 0.761 0.199 1.092 0.139 0.324 0.347 0.582 0.625 0.774 0.285 0.192 0.642 0.288 1.072 0.288 0.457 0 0.827-0.103 1.112-0.308 0.285-0.212 0.46-0.46 0.526-0.744h0.695c-0.066 0.351-0.205 0.655-0.417 0.913-0.212 0.251-0.48 0.447-0.804 0.586s-0.695 0.208-1.112 0.208z">
            </path>
            <path
                d="M19.734 25.196v-0.665h0.596c0.258 0 0.453-0.076 0.586-0.228 0.139-0.146 0.208-0.357 0.208-0.635v-5.738h0.715v5.599c0 0.41-0.056 0.738-0.169 0.983-0.106 0.245-0.278 0.42-0.516 0.526s-0.556 0.159-0.953 0.159h-0.467zM20.27 18.526v-0.596h1.568v0.596h-1.568zM21.263 16.868c-0.179 0-0.314-0.046-0.407-0.139-0.086-0.099-0.129-0.222-0.129-0.367s0.043-0.265 0.129-0.357c0.093-0.099 0.228-0.149 0.407-0.149s0.311 0.050 0.397 0.149c0.086 0.093 0.129 0.212 0.129 0.357s-0.043 0.268-0.129 0.367c-0.086 0.093-0.218 0.139-0.397 0.139z">
            </path>
            <path
                d="M69.251 14.893c-0.45 0-0.841-0.076-1.171-0.228-0.331-0.159-0.602-0.367-0.814-0.625-0.212-0.265-0.371-0.559-0.477-0.883-0.099-0.324-0.149-0.658-0.149-1.003v-0.139c0-0.338 0.050-0.668 0.149-0.993 0.106-0.324 0.265-0.615 0.477-0.874s0.477-0.463 0.794-0.615c0.324-0.159 0.702-0.238 1.132-0.238 0.549 0 1.006 0.122 1.37 0.367 0.371 0.245 0.649 0.559 0.834 0.943 0.185 0.377 0.278 0.784 0.278 1.221v0.387h-4.695v-0.576h4.179l-0.189 0.288c0-0.39-0.069-0.731-0.209-1.022-0.132-0.298-0.331-0.529-0.596-0.695-0.258-0.172-0.582-0.258-0.973-0.258-0.41 0-0.751 0.096-1.022 0.288s-0.477 0.447-0.615 0.764c-0.132 0.318-0.199 0.678-0.199 1.082 0 0.397 0.066 0.761 0.199 1.092 0.139 0.324 0.347 0.582 0.625 0.774 0.285 0.192 0.642 0.288 1.072 0.288 0.457 0 0.827-0.103 1.112-0.308 0.285-0.212 0.46-0.46 0.526-0.745h0.695c-0.066 0.351-0.205 0.655-0.417 0.913-0.212 0.251-0.48 0.447-0.804 0.586s-0.695 0.208-1.112 0.208z">
            </path>
            <path
                d="M62.525 14.892c-0.384 0-0.734-0.069-1.052-0.208-0.311-0.146-0.583-0.344-0.814-0.596-0.225-0.258-0.4-0.549-0.526-0.874-0.119-0.331-0.179-0.682-0.179-1.052v-0.139c0-0.357 0.059-0.698 0.179-1.022 0.119-0.331 0.288-0.622 0.506-0.874 0.225-0.258 0.493-0.46 0.804-0.606 0.318-0.152 0.672-0.228 1.062-0.228 0.443 0 0.834 0.096 1.171 0.288s0.609 0.47 0.814 0.834c0.205 0.357 0.314 0.797 0.328 1.32l-0.328-0.615v-3.643h0.745v7.246h-0.596v-2.333h0.238c-0.013 0.549-0.129 1.012-0.347 1.39-0.212 0.371-0.493 0.649-0.844 0.834-0.344 0.185-0.731 0.278-1.161 0.278zM62.624 14.237c0.357 0 0.678-0.079 0.963-0.238 0.291-0.159 0.52-0.384 0.685-0.675 0.165-0.298 0.248-0.639 0.248-1.022v-0.476c0-0.371-0.083-0.695-0.248-0.973-0.165-0.285-0.394-0.506-0.685-0.665-0.285-0.159-0.609-0.238-0.973-0.238-0.391 0-0.731 0.096-1.022 0.288-0.285 0.185-0.506 0.44-0.665 0.764-0.152 0.324-0.228 0.688-0.228 1.092 0 0.417 0.079 0.787 0.238 1.112s0.384 0.579 0.675 0.764c0.291 0.179 0.629 0.268 1.012 0.268z">
            </path>
            <path
                d="M58.015 14.724v-1.578h-0.119v-1.866c0-0.39-0.103-0.688-0.308-0.893-0.205-0.212-0.523-0.318-0.953-0.318-0.199 0-0.4 0.003-0.605 0.010-0.199 0.007-0.391 0.017-0.576 0.030-0.179 0.007-0.338 0.017-0.477 0.030v-0.655c0.146-0.013 0.295-0.026 0.447-0.040s0.308-0.020 0.467-0.020c0.165-0.007 0.324-0.010 0.477-0.010 0.536 0 0.966 0.066 1.29 0.199 0.331 0.132 0.573 0.341 0.725 0.625 0.152 0.278 0.228 0.649 0.228 1.112v3.375h-0.596zM56.238 14.863c-0.37 0-0.698-0.066-0.983-0.199s-0.506-0.324-0.665-0.576c-0.152-0.251-0.228-0.556-0.228-0.913 0-0.351 0.079-0.649 0.238-0.893 0.165-0.245 0.4-0.43 0.705-0.556 0.311-0.132 0.685-0.199 1.122-0.199h1.539v0.566h-1.588c-0.417 0-0.738 0.103-0.963 0.308-0.218 0.199-0.327 0.46-0.327 0.784 0 0.331 0.116 0.596 0.347 0.794 0.232 0.192 0.546 0.288 0.943 0.288 0.245 0 0.48-0.043 0.705-0.129 0.225-0.093 0.414-0.245 0.566-0.457 0.152-0.218 0.235-0.516 0.248-0.893l0.219 0.308c-0.027 0.39-0.119 0.718-0.278 0.983-0.159 0.258-0.374 0.453-0.645 0.586s-0.589 0.199-0.953 0.199z">
            </path>
            <path
                d="M45.369 14.724v-5.261h0.596v2.214h-0.119c0-0.483 0.066-0.9 0.199-1.251 0.139-0.351 0.344-0.622 0.615-0.814 0.271-0.199 0.615-0.298 1.032-0.298h0.030c0.417 0 0.761 0.096 1.032 0.288s0.473 0.463 0.605 0.814 0.199 0.771 0.199 1.261h-0.238c0-0.483 0.066-0.9 0.199-1.251 0.139-0.351 0.344-0.622 0.615-0.814 0.278-0.199 0.625-0.298 1.042-0.298h0.030c0.417 0 0.761 0.096 1.032 0.288 0.278 0.192 0.483 0.463 0.615 0.814 0.139 0.351 0.209 0.771 0.209 1.261v3.047h-0.745v-3.216c0-0.463-0.113-0.831-0.337-1.102s-0.549-0.407-0.973-0.407c-0.437 0-0.784 0.142-1.042 0.427-0.251 0.278-0.377 0.655-0.377 1.132v3.167h-0.745v-3.216c0-0.463-0.113-0.831-0.337-1.102s-0.549-0.407-0.973-0.407c-0.437 0-0.784 0.142-1.042 0.427-0.251 0.278-0.377 0.655-0.377 1.132v3.167h-0.745z">
            </path>
            <path
                d="M40.837 14.892c-0.384 0-0.735-0.069-1.052-0.208-0.311-0.146-0.582-0.344-0.814-0.596-0.225-0.258-0.4-0.549-0.526-0.874-0.119-0.331-0.179-0.682-0.179-1.052v-0.139c0-0.357 0.060-0.698 0.179-1.022 0.119-0.331 0.288-0.622 0.506-0.874 0.225-0.258 0.493-0.46 0.804-0.606 0.318-0.152 0.672-0.228 1.062-0.228 0.443 0 0.834 0.096 1.171 0.288s0.609 0.47 0.814 0.834c0.205 0.357 0.314 0.797 0.328 1.32l-0.328-0.615v-3.643h0.745v7.246h-0.596v-2.333h0.238c-0.013 0.549-0.129 1.012-0.347 1.39-0.212 0.371-0.493 0.649-0.844 0.834-0.344 0.185-0.731 0.278-1.161 0.278zM40.937 14.237c0.357 0 0.678-0.079 0.963-0.238 0.291-0.159 0.519-0.384 0.685-0.675 0.165-0.298 0.248-0.639 0.248-1.022v-0.476c0-0.371-0.083-0.695-0.248-0.973-0.165-0.285-0.394-0.506-0.685-0.665-0.285-0.159-0.609-0.238-0.973-0.238-0.391 0-0.731 0.096-1.022 0.288-0.285 0.185-0.506 0.44-0.665 0.764-0.152 0.324-0.228 0.688-0.228 1.092 0 0.417 0.079 0.787 0.238 1.112s0.384 0.579 0.675 0.764c0.291 0.179 0.629 0.268 1.013 0.268z">
            </path>
            <path
                d="M32.481 14.724v-5.251h0.596v2.204h-0.119c0-0.49 0.073-0.91 0.218-1.261s0.364-0.622 0.655-0.814 0.658-0.288 1.102-0.288h0.030c0.662 0 1.155 0.208 1.479 0.625 0.324 0.41 0.486 0.989 0.486 1.737v3.047h-0.734v-3.206c0-0.457-0.126-0.824-0.377-1.102s-0.602-0.417-1.052-0.417c-0.463 0-0.837 0.146-1.122 0.437-0.278 0.285-0.417 0.662-0.417 1.132v3.157h-0.745z">
            </path>
            <path
                d="M30.125 14.724v-1.578h-0.119v-1.866c0-0.39-0.103-0.688-0.308-0.893-0.205-0.212-0.523-0.318-0.953-0.318-0.199 0-0.4 0.003-0.605 0.010-0.199 0.007-0.391 0.017-0.576 0.030-0.179 0.007-0.337 0.017-0.477 0.030v-0.655c0.146-0.013 0.295-0.026 0.447-0.040s0.308-0.020 0.466-0.020c0.165-0.007 0.324-0.010 0.477-0.010 0.536 0 0.966 0.066 1.29 0.199 0.331 0.132 0.573 0.341 0.725 0.625 0.152 0.278 0.228 0.649 0.228 1.112v3.375h-0.596zM28.348 14.863c-0.37 0-0.698-0.066-0.983-0.199s-0.506-0.324-0.665-0.576c-0.152-0.251-0.228-0.556-0.228-0.913 0-0.351 0.079-0.649 0.238-0.893 0.165-0.245 0.401-0.43 0.705-0.556 0.311-0.132 0.685-0.199 1.122-0.199h1.539v0.566h-1.588c-0.417 0-0.738 0.103-0.963 0.308-0.219 0.199-0.328 0.46-0.328 0.784 0 0.331 0.116 0.596 0.347 0.794 0.232 0.192 0.546 0.288 0.943 0.288 0.245 0 0.48-0.043 0.705-0.129 0.225-0.093 0.414-0.245 0.566-0.457 0.152-0.218 0.235-0.516 0.248-0.893l0.218 0.308c-0.027 0.39-0.119 0.718-0.278 0.983-0.159 0.258-0.374 0.453-0.645 0.586s-0.589 0.199-0.953 0.199z">
            </path>
            <path
                d="M20.727 14.724v-7.246h0.744v4.1l-0.218 0.169c0-0.49 0.070-0.917 0.208-1.281 0.146-0.364 0.361-0.645 0.645-0.844 0.291-0.205 0.655-0.308 1.092-0.308h0.040c0.635 0 1.115 0.208 1.439 0.625 0.331 0.417 0.496 0.996 0.496 1.737v3.047h-0.734v-3.206c0-0.47-0.129-0.84-0.387-1.112s-0.605-0.407-1.042-0.407c-0.47 0-0.844 0.152-1.122 0.457-0.278 0.298-0.417 0.692-0.417 1.181v3.087h-0.744z">
            </path>
            <path
                d="M31.063 22.6l1.042-4.719h0.968l1.208 4.719h-0.599l-1.208-4.692h0.221l-1.051 4.692h-0.581zM30.666 22.6v-0.562h0.839v0.562h-0.839zM30.5 22.6l-1.41-4.876h0.663l1.392 4.876h-0.645zM33.837 22.6v-0.562h0.82v0.562h-0.82zM34.197 22.6l1.217-4.876h0.636l-1.244 4.876h-0.608z">
            </path>
        </symbol>
        <symbol id="icon-logo-mob" viewBox="0 0 75 32">
            <path
                d="M16.441 10.036l0.012 0.010 0.654 0.544 0.001 10.078c-2.31 1.907-4.634 3.797-6.972 5.669-0.148-0.015-4-3.182-5.956-4.791l-0.055-0.045c-0.501-0.412-0.87-0.715-1.006-0.825l-0.007-10.080 6.965-5.707c0.227 0.032 4.575 3.656 6.364 5.147zM13.433 12.095l-0.008-0.013-0.001-0.002-0.011-0.018c-1.145-1.852-3.15-5.096-3.321-5.22l-4.042 6.44 0.009 4.47 0.813 1.334c0.356 0.051 0.715 0.109 1.075 0.167 0.73 0.118 1.466 0.237 2.191 0.297l0.967-0.145c0.747-0.113 1.494-0.226 2.242-0.326l0.815-1.266-0-4.543c-0.097-0.152-0.369-0.592-0.729-1.175zM14.464 13.811c0.284 0.355 0.529 0.791 0.765 1.214 0.068 0.122 0.136 0.242 0.204 0.359 0.034 0.058 0.067 0.116 0.101 0.172l-0.136 0.222-0.141 0.229c-0.123 0.199-0.247 0.397-0.371 0.595l-0.43 0.698c-0-0.336-0.003-0.672-0.006-1.008-0.007-0.827-0.014-1.656 0.014-2.481zM11.239 6.147c-0.334-0.294-0.744-0.654-0.99-0.758l0.007 0.331c0.006 0.26 0.012 0.52 0.014 0.779 1.284 2.072 2.578 4.137 3.884 6.196-0-0.063-0.003-0.162-0.006-0.284v-0.020c-0.016-0.58-0.044-1.635 0.104-1.79 0.004-0.004 0.008-0.008 0.013-0.012l0.011-0.009 0.011-0.009 0.13 0.057c0.101 0.458 0.076 1.173 0.055 1.81l-0 0.009-0.001 0.039c-0.009 0.265-0.017 0.516-0.014 0.726 0.172 0.287 0.348 0.573 0.524 0.858 0.306 0.496 0.612 0.993 0.896 1.499l-1.418 2.277 0.003 1.459v1.124l2.352 0.001-0.005-9.697c-1.724-1.45-3.464-2.879-5.222-4.288l-0.054-0.044-0.050-0.042c-0.073-0.062-0.155-0.135-0.243-0.212zM9.91 5.407l0.034 0.029c0.068 0.202 0.049 0.513 0.033 0.783-0.006 0.099-0.012 0.192-0.013 0.273l-3.923 6.26c0.001-0.097 0.004-0.199 0.008-0.305l0.004-0.097 0.008-0.19c0.020-0.473 0.041-0.981-0.011-1.379-0.015-0.111-0.048-0.152-0.134-0.217l-0.091 0.017c-0.137 0.213-0.098 1.533-0.076 2.253l0.006 0.222c0.002 0.065 0.003 0.12 0.003 0.16-0.471 0.769-0.935 1.543-1.393 2.32l1.396 2.289-0.006 1.309-0.005 1.296-2.344-0.003 0.009-9.689c1.397-1.205 2.837-2.367 4.276-3.529 0.742-0.599 1.485-1.198 2.22-1.802zM8.405 19.615c-0.441-0.079-0.882-0.157-1.32-0.193l0.339 0.544c0.904 1.451 1.81 2.906 2.675 4.378 0.438-0.707 0.872-1.416 1.301-2.129 0.194-0.313 0.387-0.627 0.579-0.942 0.381-0.623 0.763-1.245 1.157-1.859-0.246 0.035-0.538 0.085-0.849 0.139-0.772 0.133-1.659 0.286-2.239 0.271-0.545-0.015-1.094-0.113-1.643-0.211zM6.044 19.265l0.664 0.096c0.445 0.738 0.898 1.472 1.351 2.206l0.002 0.003 0.012 0.020c0.635 1.029 1.269 2.058 1.883 3.1-0 0.162 0 0.325 0.001 0.487 0.002 0.233 0.005 0.465 0.010 0.698l-1.324-1.083-4.997-4.076c0.561 0.008 1.122 0.006 1.683 0.004 0.237-0.001 0.474-0.001 0.71-0.001 0.013-0.484 0.004-0.969 0.003-1.454zM13.997 19.287l-0.025 0.002-0.46 0.071-3.251 5.291-0.013 1.22c0.209-0.171 0.419-0.341 0.629-0.511 0.263-0.212 0.527-0.424 0.791-0.635 1.645-1.32 3.277-2.656 4.895-4.009l-2.4 0.003c0.001-0.107 0.006-0.219 0.010-0.333l0.001-0.010c0.015-0.354 0.030-0.728-0.041-1.051-0.063-0.047-0.071-0.046-0.12-0.040l-0.019 0.002zM5.76 17.155l-0.001 0.109-0.347-0.567c-0.148-0.271-0.312-0.537-0.477-0.802-0.073-0.118-0.146-0.236-0.218-0.354 0.203-0.381 0.426-0.753 0.648-1.125l0.17-0.285c0.056-0.094 0.112-0.189 0.167-0.284 0.116 0.177 0.082 2.004 0.064 2.938-0.003 0.15-0.005 0.277-0.006 0.37zM13.847 18.966l0.060-0.108c0.106-0.19 0.213-0.381 0.35-0.55 0.012 0.175-0.001 0.413-0.032 0.556-0.172 0.063-0.242 0.086-0.378 0.102zM6.061 18.367c0.163 0.201 0.283 0.433 0.41 0.658-0.047-0.006-0.068-0.007-0.089-0.011-0.040-0.008-0.078-0.024-0.289-0.091-0.032-0.203-0.044-0.381-0.032-0.556z">
            </path>
            <path
                d="M13.433 12.095c-0.143-0.231-0.299-0.484-0.464-0.751 0.162 0.262 0.316 0.511 0.456 0.738l0.008 0.013z">
            </path>
            <path d="M14.154 12.695c-0-0.066-0.003-0.169-0.006-0.296v0.006c0.003 0.124 0.006 0.226 0.006 0.29z"></path>
            <path
                d="M6.052 12.378c-0.005 0.131-0.009 0.257-0.010 0.374 0.001-0.097 0.004-0.199 0.008-0.305 0.001-0.023 0.002-0.047 0.003-0.070zM5.757 13.217c-0.001-0.081-0.005-0.216-0.010-0.383l0.006 0.222c0.002 0.065 0.003 0.12 0.003 0.16z">
            </path>
            <path
                d="M14.167 20.651c0.002-0.089 0.006-0.181 0.010-0.274l-0.001 0.010c-0.004 0.090-0.007 0.178-0.009 0.265z">
            </path>
            <path
                d="M5.702 13.847c-0.066 0.114-0.134 0.228-0.202 0.342l0.035-0.058c0.056-0.095 0.112-0.189 0.167-0.284zM5.758 17.264c0-0.114 0.005-0.371 0.011-0.696-0.001 0.076-0.003 0.149-0.004 0.217-0.004 0.221-0.007 0.391-0.007 0.479z">
            </path>
            <path
                d="M49.529 24.874v-0.667h0.677c0.232 0 0.431-0.030 0.597-0.090 0.166-0.053 0.305-0.149 0.418-0.289s0.209-0.332 0.289-0.577l1.772-5.695h0.727l-1.852 5.904c-0.106 0.338-0.252 0.611-0.438 0.816-0.186 0.212-0.408 0.365-0.667 0.458s-0.554 0.139-0.886 0.139h-0.637zM51.241 22.694v-0.627h0.946v0.627h-0.946zM51.151 22.694l-1.911-5.137h0.767l1.842 5.137h-0.697z">
            </path>
            <path
                d="M45.906 22.823v-5.266h0.597v2.2h-0.060c0-0.77 0.169-1.337 0.508-1.702 0.339-0.372 0.87-0.558 1.593-0.558h0.169v0.677h-0.309c-0.571 0-1.005 0.149-1.304 0.448-0.299 0.292-0.448 0.723-0.448 1.294v2.907h-0.747z">
            </path>
            <path d="M43.324 22.823v-7.268h0.747v7.268h-0.747zM42.557 16.163v-0.607h1.513v0.607h-1.513z"></path>
            <path
                d="M39.507 22.993c-0.451 0-0.843-0.076-1.175-0.229-0.332-0.159-0.604-0.368-0.817-0.627-0.212-0.265-0.372-0.561-0.478-0.886-0.099-0.325-0.149-0.66-0.149-1.006v-0.139c0-0.338 0.050-0.67 0.149-0.996 0.106-0.325 0.266-0.617 0.478-0.876s0.478-0.465 0.797-0.617c0.325-0.159 0.703-0.239 1.135-0.239 0.551 0 1.009 0.123 1.374 0.368 0.372 0.246 0.65 0.561 0.836 0.946 0.186 0.378 0.279 0.786 0.279 1.225v0.388h-4.709v-0.577h4.191l-0.189 0.289c0-0.392-0.069-0.733-0.209-1.025-0.133-0.299-0.332-0.531-0.597-0.697-0.259-0.173-0.584-0.259-0.976-0.259-0.412 0-0.753 0.096-1.025 0.289s-0.478 0.448-0.617 0.767c-0.133 0.319-0.199 0.68-0.199 1.085 0 0.398 0.066 0.763 0.199 1.095 0.139 0.325 0.349 0.584 0.627 0.777 0.285 0.192 0.644 0.289 1.075 0.289 0.458 0 0.83-0.103 1.115-0.309 0.286-0.212 0.461-0.461 0.528-0.747h0.697c-0.066 0.352-0.206 0.657-0.418 0.916-0.212 0.252-0.481 0.448-0.807 0.587s-0.697 0.209-1.115 0.209z">
            </path>
            <path
                d="M25.941 23.418c-0.451 0-0.843-0.076-1.175-0.229-0.332-0.159-0.604-0.368-0.816-0.627-0.212-0.265-0.372-0.561-0.478-0.886-0.1-0.325-0.149-0.66-0.149-1.006v-0.139c0-0.338 0.050-0.67 0.149-0.996 0.106-0.325 0.265-0.617 0.478-0.876s0.478-0.465 0.796-0.617c0.325-0.159 0.704-0.239 1.135-0.239 0.551 0 1.009 0.123 1.374 0.368 0.372 0.246 0.65 0.561 0.836 0.946 0.186 0.378 0.279 0.787 0.279 1.225v0.388h-4.709v-0.577h4.191l-0.189 0.289c0-0.392-0.070-0.733-0.209-1.025-0.133-0.299-0.332-0.531-0.597-0.697-0.259-0.173-0.584-0.259-0.976-0.259-0.412 0-0.753 0.096-1.025 0.289s-0.478 0.448-0.617 0.767c-0.133 0.319-0.199 0.68-0.199 1.085 0 0.398 0.066 0.763 0.199 1.095 0.139 0.325 0.348 0.584 0.627 0.777 0.285 0.192 0.644 0.289 1.075 0.289 0.458 0 0.83-0.103 1.115-0.309 0.285-0.212 0.461-0.461 0.528-0.747h0.697c-0.066 0.352-0.206 0.657-0.418 0.916-0.212 0.252-0.481 0.448-0.806 0.587s-0.697 0.209-1.115 0.209z">
            </path>
            <path
                d="M19.792 25.27v-0.667h0.597c0.259 0 0.455-0.076 0.587-0.229 0.139-0.146 0.209-0.358 0.209-0.637v-5.754h0.717v5.615c0 0.412-0.056 0.74-0.169 0.986-0.106 0.246-0.279 0.421-0.518 0.528s-0.558 0.159-0.956 0.159h-0.468zM20.329 18.58v-0.597h1.573v0.597h-1.573zM21.325 16.917c-0.179 0-0.315-0.046-0.408-0.139-0.086-0.1-0.129-0.222-0.129-0.368s0.043-0.265 0.129-0.358c0.093-0.1 0.229-0.149 0.408-0.149s0.312 0.050 0.398 0.149c0.086 0.093 0.129 0.212 0.129 0.358s-0.043 0.269-0.129 0.368c-0.086 0.093-0.219 0.139-0.398 0.139z">
            </path>
            <path
                d="M69.453 14.936c-0.451 0-0.843-0.076-1.175-0.229-0.332-0.159-0.604-0.368-0.817-0.627-0.212-0.265-0.372-0.561-0.478-0.886-0.1-0.325-0.149-0.66-0.149-1.006v-0.139c0-0.338 0.050-0.67 0.149-0.996 0.106-0.325 0.265-0.617 0.478-0.876s0.478-0.465 0.797-0.617c0.325-0.159 0.704-0.239 1.135-0.239 0.551 0 1.009 0.123 1.374 0.368 0.372 0.246 0.65 0.561 0.836 0.946 0.186 0.378 0.279 0.787 0.279 1.225v0.388h-4.709v-0.577h4.191l-0.189 0.289c0-0.392-0.070-0.733-0.209-1.025-0.133-0.299-0.332-0.531-0.597-0.697-0.259-0.173-0.584-0.259-0.976-0.259-0.412 0-0.753 0.096-1.025 0.289s-0.478 0.448-0.617 0.767c-0.132 0.319-0.199 0.68-0.199 1.085 0 0.398 0.066 0.763 0.199 1.095 0.139 0.325 0.349 0.584 0.627 0.777 0.286 0.192 0.644 0.289 1.075 0.289 0.458 0 0.83-0.103 1.115-0.309 0.286-0.212 0.461-0.461 0.528-0.747h0.697c-0.066 0.352-0.206 0.657-0.418 0.916-0.212 0.252-0.481 0.448-0.807 0.587s-0.697 0.209-1.115 0.209z">
            </path>
            <path
                d="M62.708 14.936c-0.385 0-0.737-0.070-1.055-0.209-0.312-0.146-0.584-0.345-0.817-0.597-0.225-0.259-0.402-0.551-0.527-0.876-0.119-0.332-0.179-0.684-0.179-1.055v-0.139c0-0.358 0.060-0.7 0.179-1.025 0.119-0.332 0.289-0.624 0.508-0.876 0.225-0.259 0.494-0.461 0.806-0.607 0.319-0.153 0.674-0.229 1.065-0.229 0.445 0 0.836 0.096 1.175 0.289s0.611 0.471 0.817 0.836c0.206 0.358 0.315 0.8 0.328 1.324l-0.328-0.617v-3.654h0.747v7.268h-0.597v-2.34h0.239c-0.013 0.551-0.129 1.015-0.349 1.394-0.212 0.372-0.494 0.65-0.846 0.836-0.345 0.186-0.733 0.279-1.165 0.279zM62.807 14.279c0.359 0 0.68-0.080 0.966-0.239 0.292-0.159 0.521-0.385 0.687-0.677 0.166-0.299 0.249-0.64 0.249-1.025v-0.478c0-0.372-0.083-0.697-0.249-0.976-0.166-0.285-0.395-0.508-0.687-0.667-0.286-0.159-0.611-0.239-0.976-0.239-0.392 0-0.733 0.096-1.025 0.289-0.285 0.186-0.508 0.441-0.667 0.767-0.153 0.325-0.229 0.69-0.229 1.095 0 0.418 0.080 0.79 0.239 1.115s0.385 0.581 0.677 0.767c0.292 0.179 0.63 0.269 1.015 0.269z">
            </path>
            <path
                d="M58.185 14.766v-1.583h-0.12v-1.872c0-0.392-0.103-0.69-0.309-0.896-0.206-0.212-0.524-0.319-0.956-0.319-0.199 0-0.402 0.003-0.607 0.010-0.199 0.007-0.392 0.017-0.577 0.030-0.179 0.007-0.339 0.017-0.478 0.030v-0.657c0.146-0.013 0.295-0.027 0.448-0.040s0.309-0.020 0.468-0.020c0.166-0.007 0.325-0.010 0.478-0.010 0.537 0 0.969 0.066 1.294 0.199 0.332 0.133 0.574 0.342 0.727 0.627 0.153 0.279 0.229 0.65 0.229 1.115v3.385h-0.597zM56.402 14.906c-0.372 0-0.7-0.066-0.985-0.199s-0.508-0.325-0.667-0.577c-0.153-0.252-0.229-0.557-0.229-0.916 0-0.352 0.080-0.65 0.239-0.896 0.166-0.246 0.402-0.431 0.707-0.558 0.312-0.133 0.687-0.199 1.125-0.199h1.543v0.567h-1.593c-0.418 0-0.74 0.103-0.966 0.309-0.219 0.199-0.329 0.461-0.329 0.786 0 0.332 0.116 0.597 0.349 0.796 0.232 0.192 0.547 0.289 0.946 0.289 0.245 0 0.481-0.043 0.707-0.129 0.226-0.093 0.415-0.246 0.567-0.458 0.153-0.219 0.236-0.518 0.249-0.896l0.219 0.309c-0.026 0.392-0.119 0.72-0.279 0.986-0.159 0.259-0.375 0.455-0.647 0.587s-0.591 0.199-0.956 0.199z">
            </path>
            <path
                d="M45.502 14.767v-5.276h0.597v2.22h-0.119c0-0.485 0.066-0.903 0.199-1.254 0.14-0.352 0.345-0.624 0.617-0.816 0.272-0.199 0.617-0.299 1.035-0.299h0.030c0.418 0 0.763 0.096 1.035 0.289s0.474 0.465 0.607 0.816 0.199 0.773 0.199 1.264h-0.239c0-0.485 0.066-0.903 0.199-1.254 0.139-0.352 0.345-0.624 0.617-0.816 0.279-0.199 0.627-0.299 1.045-0.299h0.030c0.418 0 0.763 0.096 1.035 0.289 0.279 0.192 0.484 0.465 0.617 0.816 0.139 0.352 0.209 0.773 0.209 1.264v3.056h-0.747v-3.226c0-0.465-0.113-0.833-0.338-1.105s-0.551-0.408-0.976-0.408c-0.438 0-0.787 0.143-1.045 0.428-0.252 0.279-0.378 0.657-0.378 1.135v3.176h-0.747v-3.226c0-0.465-0.113-0.833-0.339-1.105s-0.551-0.408-0.976-0.408c-0.438 0-0.786 0.143-1.045 0.428-0.252 0.279-0.378 0.657-0.378 1.135v3.176h-0.747z">
            </path>
            <path
                d="M40.956 14.936c-0.385 0-0.737-0.070-1.055-0.209-0.312-0.146-0.584-0.345-0.816-0.597-0.226-0.259-0.402-0.551-0.528-0.876-0.119-0.332-0.179-0.684-0.179-1.055v-0.139c0-0.358 0.060-0.7 0.179-1.025 0.119-0.332 0.289-0.624 0.508-0.876 0.226-0.259 0.494-0.461 0.806-0.607 0.319-0.153 0.674-0.229 1.065-0.229 0.445 0 0.836 0.096 1.175 0.289s0.611 0.471 0.817 0.836c0.206 0.358 0.315 0.8 0.329 1.324l-0.329-0.617v-3.654h0.747v7.268h-0.597v-2.34h0.239c-0.013 0.551-0.129 1.015-0.348 1.394-0.213 0.372-0.494 0.65-0.846 0.836-0.345 0.186-0.733 0.279-1.165 0.279zM41.056 14.279c0.359 0 0.681-0.080 0.966-0.239 0.292-0.159 0.521-0.385 0.687-0.677 0.166-0.299 0.249-0.64 0.249-1.025v-0.478c0-0.372-0.083-0.697-0.249-0.976-0.166-0.285-0.395-0.508-0.687-0.667-0.285-0.159-0.611-0.239-0.975-0.239-0.392 0-0.734 0.096-1.026 0.289-0.285 0.186-0.508 0.441-0.667 0.767-0.153 0.325-0.229 0.69-0.229 1.095 0 0.418 0.080 0.79 0.239 1.115s0.385 0.581 0.677 0.767c0.292 0.179 0.631 0.269 1.015 0.269z">
            </path>
            <path
                d="M32.576 14.767v-5.266h0.597v2.21h-0.119c0-0.491 0.073-0.913 0.219-1.264s0.365-0.624 0.657-0.816c0.292-0.192 0.66-0.289 1.105-0.289h0.030c0.664 0 1.158 0.209 1.483 0.627 0.325 0.412 0.488 0.992 0.488 1.742v3.056h-0.737v-3.216c0-0.458-0.126-0.826-0.379-1.105s-0.604-0.418-1.055-0.418c-0.465 0-0.84 0.146-1.125 0.438-0.279 0.285-0.418 0.664-0.418 1.135v3.166h-0.747z">
            </path>
            <path
                d="M30.213 14.766v-1.583h-0.119v-1.872c0-0.392-0.103-0.69-0.309-0.896-0.206-0.212-0.524-0.319-0.956-0.319-0.199 0-0.402 0.003-0.607 0.010-0.199 0.007-0.392 0.017-0.577 0.030-0.179 0.007-0.338 0.017-0.478 0.030v-0.657c0.146-0.013 0.295-0.027 0.448-0.040s0.309-0.020 0.468-0.020c0.166-0.007 0.325-0.010 0.478-0.010 0.538 0 0.969 0.066 1.294 0.199 0.332 0.133 0.574 0.342 0.727 0.627 0.153 0.279 0.229 0.65 0.229 1.115v3.385h-0.597zM28.431 14.906c-0.372 0-0.7-0.066-0.986-0.199s-0.508-0.325-0.667-0.577c-0.153-0.252-0.229-0.557-0.229-0.916 0-0.352 0.080-0.65 0.239-0.896 0.166-0.246 0.401-0.431 0.707-0.558 0.312-0.133 0.687-0.199 1.125-0.199h1.543v0.567h-1.593c-0.418 0-0.74 0.103-0.966 0.309-0.219 0.199-0.329 0.461-0.329 0.786 0 0.332 0.116 0.597 0.348 0.796 0.232 0.192 0.548 0.289 0.946 0.289 0.246 0 0.481-0.043 0.707-0.129 0.226-0.093 0.415-0.246 0.567-0.458 0.153-0.219 0.236-0.518 0.249-0.896l0.219 0.309c-0.027 0.392-0.119 0.72-0.279 0.986-0.159 0.259-0.375 0.455-0.647 0.587s-0.591 0.199-0.956 0.199z">
            </path>
            <path
                d="M20.788 14.767v-7.268h0.747v4.112l-0.219 0.169c0-0.491 0.070-0.919 0.209-1.284 0.146-0.365 0.362-0.647 0.647-0.846 0.292-0.206 0.657-0.309 1.095-0.309h0.040c0.637 0 1.118 0.209 1.444 0.627 0.332 0.418 0.498 0.999 0.498 1.742v3.056h-0.737v-3.216c0-0.471-0.129-0.843-0.388-1.115s-0.607-0.408-1.045-0.408c-0.471 0-0.846 0.153-1.125 0.458-0.279 0.299-0.418 0.694-0.418 1.185v3.096h-0.747z">
            </path>
            <path
                d="M31.153 22.667l1.045-4.733h0.971l1.211 4.733h-0.601l-1.211-4.705h0.222l-1.054 4.705h-0.582zM30.756 22.667v-0.564h0.841v0.564h-0.841zM30.589 22.667l-1.414-4.89h0.666l1.396 4.89h-0.647zM33.936 22.667v-0.564h0.823v0.564h-0.823zM34.296 22.667l1.22-4.89h0.638l-1.248 4.89h-0.61z">
            </path>
        </symbol>
        <symbol id="icon-facebook" viewBox="0 0 32 32">
            <path
                d="M29.333 16.405c0-7.409-5.97-13.415-13.333-13.415s-13.333 6.006-13.333 13.415c0 6.696 4.876 12.245 11.25 13.252v-9.374h-3.385v-3.878h3.385v-2.955c0-3.362 1.991-5.219 5.036-5.219 1.459 0 2.985 0.262 2.985 0.262v3.301h-1.681c-1.656 0-2.173 1.034-2.173 2.095v2.516h3.698l-0.591 3.878h-3.107v9.374c6.374-1.006 11.25-6.556 11.25-13.252z">
            </path>
        </symbol>
        <symbol id="icon-instagram" viewBox="0 0 32 32">
            <path
                d="M15.998 6.161c3.206 0 3.585 0.014 4.846 0.071 1.172 0.052 1.804 0.248 2.226 0.412 0.558 0.216 0.961 0.478 1.378 0.895 0.422 0.422 0.679 0.82 0.9 1.378 0.164 0.422 0.361 1.059 0.412 2.226 0.056 1.266 0.070 1.645 0.070 4.847s-0.014 3.585-0.070 4.847c-0.052 1.172-0.248 1.804-0.412 2.227-0.216 0.558-0.478 0.961-0.895 1.378-0.422 0.422-0.82 0.679-1.378 0.9-0.422 0.164-1.060 0.361-2.226 0.412-1.266 0.056-1.645 0.070-4.847 0.070s-3.585-0.014-4.847-0.070c-1.172-0.052-1.804-0.248-2.226-0.412-0.558-0.216-0.961-0.478-1.378-0.895-0.422-0.422-0.679-0.82-0.9-1.378-0.164-0.422-0.361-1.060-0.412-2.227-0.056-1.266-0.071-1.645-0.071-4.847s0.014-3.585 0.071-4.847c0.052-1.172 0.248-1.804 0.412-2.226 0.216-0.558 0.478-0.961 0.895-1.378 0.422-0.422 0.82-0.679 1.378-0.9 0.422-0.164 1.059-0.361 2.226-0.412 1.261-0.056 1.641-0.071 4.847-0.071h0.001zM15.998 4.001c-3.258 0-3.665 0.014-4.945 0.071-1.275 0.056-2.152 0.262-2.91 0.558-0.792 0.309-1.462 0.717-2.127 1.387-0.67 0.666-1.078 1.336-1.387 2.123-0.295 0.764-0.502 1.636-0.558 2.91-0.056 1.285-0.071 1.692-0.071 4.949s0.014 3.665 0.071 4.945c0.056 1.275 0.262 2.151 0.558 2.91 0.31 0.792 0.717 1.462 1.387 2.127 0.665 0.665 1.336 1.078 2.123 1.383 0.764 0.296 1.636 0.502 2.91 0.558 1.279 0.056 1.687 0.070 4.945 0.070s3.666-0.014 4.945-0.070c1.275-0.056 2.151-0.262 2.91-0.558 0.787-0.304 1.458-0.717 2.123-1.383s1.078-1.336 1.383-2.123c0.295-0.764 0.502-1.636 0.558-2.91 0.056-1.279 0.070-1.687 0.070-4.945s-0.014-3.665-0.070-4.945c-0.056-1.275-0.262-2.151-0.558-2.91-0.296-0.797-0.703-1.467-1.373-2.133-0.665-0.665-1.336-1.078-2.123-1.383-0.764-0.295-1.636-0.502-2.91-0.558-1.284-0.061-1.692-0.075-4.949-0.075l-0.001 0.001z">
            </path>
            <path
                d="M15.998 9.836c-3.402 0-6.163 2.76-6.163 6.163s2.76 6.163 6.163 6.163c3.403 0 6.164-2.76 6.164-6.163s-2.76-6.163-6.163-6.163zM15.998 19.997c-2.208 0-3.998-1.79-3.998-3.998s1.79-3.998 3.998-3.998c2.208 0 3.998 1.79 3.998 3.998s-1.79 3.998-3.998 3.998z">
            </path>
            <path
                d="M23.843 9.592c0 0.795-0.644 1.439-1.439 1.439s-1.439-0.644-1.439-1.439c0-0.795 0.644-1.439 1.439-1.439s1.439 0.644 1.439 1.439z">
            </path>
        </symbol>
        <symbol id="icon-x" viewBox="0 0 32 32">
            <path
                d="M22.901 5.657h3.68l-8.040 9.037 9.459 12.297h-7.406l-5.801-7.458-6.637 7.458h-3.682l8.6-9.666-9.074-11.668h7.594l5.243 6.817 6.064-6.817zM21.61 24.824h2.039l-13.163-17.115h-2.188l13.312 17.115z">
            </path>
        </symbol>
        <symbol id="icon-linkedin" viewBox="0 0 32 32">
            <path
                d="M25.75 4h-19.5c-1.237 0-2.25 1.013-2.25 2.25v19.5c0 1.238 1.013 2.25 2.25 2.25h19.5c1.238 0 2.25-1.012 2.25-2.25v-19.5c0-1.237-1.012-2.25-2.25-2.25zM13 23.5h-3v-10.5h3v10.5zM11.5 11.5c-0.829 0-1.5-0.671-1.5-1.5s0.671-1.5 1.5-1.5c0.829 0 1.5 0.671 1.5 1.5s-0.671 1.5-1.5 1.5zM23.5 23.5h-3v-6c0-0.829-0.671-1.5-1.5-1.5s-1.5 0.671-1.5 1.5v6h-3v-10.5h3v1.861c0.619-0.848 1.565-1.861 2.625-1.861 1.866 0 3.375 1.678 3.375 3.75v6.75z">
            </path>
        </symbol>
        <symbol id="icon-youtube" viewBox="0 0 32 32">
            <path
                d="M28.791 9.604c-0.152-0.563-0.449-1.077-0.861-1.49s-0.925-0.711-1.488-0.864c-2.088-0.573-10.441-0.583-10.441-0.583s-8.352-0.009-10.441 0.539c-0.563 0.16-1.075 0.462-1.487 0.878s-0.711 0.929-0.867 1.493c-0.551 2.088-0.556 6.419-0.556 6.419s-0.005 4.352 0.541 6.419c0.307 1.143 1.207 2.045 2.351 2.353 2.109 0.573 10.44 0.583 10.44 0.583s8.353 0.009 10.441-0.537c0.563-0.153 1.077-0.45 1.49-0.862s0.712-0.925 0.866-1.488c0.552-2.087 0.556-6.416 0.556-6.416s0.027-4.353-0.543-6.441zM13.328 20.006l0.007-8 6.943 4.007-6.949 3.993z">
            </path>
        </symbol>
    </defs>
</svg>