<svg width="32" height="32" viewBox="0 0 32 32" fill="none" xmlns="http://www.w3.org/2000/svg">
<path d="M25.75 4H6.25C5.0125 4 4 5.0125 4 6.25V25.75C4 26.9875 5.0125 28 6.25 28H25.75C26.9875 28 28 26.9875 28 25.75V6.25C28 5.0125 26.9875 4 25.75 4ZM13 23.5H10V13H13V23.5ZM11.5 11.5C10.6705 11.5 10 10.8295 10 10C10 9.1705 10.6705 8.5 11.5 8.5C12.3295 8.5 13 9.1705 13 10C13 10.8295 12.3295 11.5 11.5 11.5ZM23.5 23.5H20.5V17.5C20.5 16.6705 19.8295 16 19 16C18.1705 16 17.5 16.6705 17.5 17.5V23.5H14.5V13H17.5V14.8608C18.1188 14.0125 19.0653 13 20.125 13C21.991 13 23.5 14.6785 23.5 16.75V23.5Z" fill="black"/>
</svg>
