<svg width="342" height="147" viewBox="0 0 342 147" fill="none" xmlns="http://www.w3.org/2000/svg">
<path fill-rule="evenodd" clip-rule="evenodd" d="M75.3041 45.9702L75.3595 46.0161L75.9181 46.4813L76.3669 46.8557L78.3532 48.5081L78.3569 94.6688C67.7772 103.405 57.1311 112.061 46.4212 120.634C45.7415 120.567 28.1014 106.059 19.1405 98.6886L18.8902 98.4827C16.5937 96.5942 14.9056 95.206 14.2814 94.7019L14.25 48.5334L46.1534 22.3931C47.1932 22.5404 67.1096 39.1393 75.3041 45.9702ZM61.5275 55.4011L61.4915 55.3433L61.4859 55.3329L61.4361 55.2528C56.1929 46.7691 47.0085 31.9094 46.2227 31.3454L27.7108 60.8411L27.7523 81.317L31.4746 87.4249C33.1045 87.657 34.7482 87.9226 36.3974 88.189C39.743 88.7296 43.1107 89.2738 46.4323 89.5498L48.4407 89.2502L50.8629 88.8847C54.2841 88.3674 57.7064 87.85 61.1341 87.3917L64.8684 81.592L64.8666 60.7831C64.4215 60.0845 63.1767 58.0702 61.5275 55.4011ZM66.2499 63.2599C67.5528 64.8884 68.672 66.8853 69.7561 68.82C70.0692 69.3771 70.3785 69.9292 70.6888 70.4657C70.843 70.7326 70.9972 70.9956 71.1523 71.2535L70.5309 72.2682L69.8854 73.3173C69.3221 74.2282 68.7561 75.1371 68.1854 76.0439L66.2148 79.2409C66.2129 77.7038 66.2 76.1637 66.1871 74.6225C66.1557 70.8329 66.1252 67.0364 66.2499 63.2599ZM51.4797 28.1584C49.9487 26.8136 48.0704 25.1647 46.9438 24.6842L46.978 26.1995C47.0057 27.3895 47.0334 28.5798 47.0436 29.7695C52.9239 39.2594 58.8533 48.7191 64.8315 58.148C64.8306 57.858 64.8177 57.4042 64.802 56.8478V56.8194V56.79V56.7748V56.7557C64.7309 54.099 64.6016 49.2677 65.2794 48.5556C65.2969 48.5362 65.3163 48.5184 65.3375 48.5012L65.3883 48.4598L65.4391 48.4185L66.0366 48.6798C66.4974 50.7792 66.3866 54.0542 66.2877 56.972L66.2859 57.0146L66.2804 57.1928C66.2407 58.4084 66.2037 59.5544 66.2148 60.5176C67.0006 61.8328 67.8068 63.14 68.6138 64.448C70.0156 66.7199 71.4183 68.994 72.7185 71.3152L66.224 81.7435L66.2397 88.4268V93.5731L77.0106 93.5789L76.9875 49.1636C69.0931 42.5219 61.1212 35.9749 53.0708 29.5242L52.8224 29.3209L52.5943 29.1289C52.26 28.8442 51.8823 28.5118 51.4797 28.1584ZM45.3934 24.7683L45.5476 24.9006C45.8588 25.8247 45.772 27.2512 45.6972 28.4865C45.6695 28.9398 45.6437 29.3674 45.639 29.7349L27.672 58.4085C27.6766 57.9652 27.6895 57.497 27.7071 57.0125L27.7237 56.568L27.7597 55.6995C27.8511 53.5327 27.949 51.2052 27.708 49.3832C27.6406 48.8726 27.4882 48.6882 27.093 48.3894L26.6774 48.4682C26.0495 49.445 26.2296 55.4913 26.3275 58.7854L26.3561 59.8042C26.3644 60.1028 26.3699 60.3515 26.3718 60.5378C24.2156 64.062 22.089 67.6036 19.99 71.1621L26.3847 81.6488L26.3579 87.6456L26.3367 93.5809L15.5982 93.5653L15.6388 49.1873C22.0363 43.6688 28.6333 38.3439 35.2247 33.024C38.6256 30.2795 42.0248 27.5362 45.3934 24.7683ZM38.5001 89.8427C36.4796 89.4826 34.461 89.1227 32.4525 88.96L34.0057 91.4537C38.1464 98.0988 42.2972 104.762 46.2568 111.508C48.2643 108.27 50.2525 105.02 52.2175 101.758C53.1068 100.325 53.9887 98.8854 54.8705 97.446C56.6167 94.5946 58.3648 91.7425 60.1701 88.9326C59.0453 89.0919 57.7073 89.3227 56.2834 89.5685C52.7494 90.1783 48.6836 90.8799 46.026 90.8075C43.5299 90.7393 41.0145 90.2909 38.5001 89.8427ZM27.6821 88.2393L30.7239 88.6787C32.7628 92.0608 34.8368 95.422 36.9108 98.7834L36.9191 98.7983L36.9746 98.8886C39.8815 103.602 42.7884 108.316 45.6003 113.088C45.5984 113.831 45.6003 114.575 45.6067 115.318C45.615 116.384 45.6307 117.45 45.6547 118.515L39.5915 113.553L16.7045 94.8836C19.2725 94.9193 21.8433 94.9116 24.4132 94.9038C25.4982 94.9005 26.5833 94.8972 27.6674 94.8972C27.7274 92.6805 27.6868 90.4579 27.6821 88.2393ZM64.1131 88.3398L63.9995 88.3506L61.8941 88.6749L47.0039 112.908L46.9457 118.498C47.9051 117.716 48.8655 116.936 49.8286 116.159C51.0337 115.186 52.2425 114.216 53.4531 113.25C60.9882 107.203 68.4624 101.083 75.8757 94.8855L64.8823 94.8972C64.8888 94.4065 64.9091 93.8946 64.9303 93.3727L64.9331 93.3275C65.0005 91.7064 65.0716 89.9916 64.7475 88.5147C64.4584 88.2977 64.4215 88.3023 64.199 88.3296L64.1131 88.3398ZM26.381 78.5788L26.3764 79.0768L24.7854 76.4775C24.1094 75.2348 23.354 74.0164 22.6015 72.8034C22.2662 72.2624 21.932 71.7225 21.6051 71.182C22.534 69.4385 23.5544 67.7333 24.5739 66.0305L25.3533 64.7268C25.61 64.2941 25.8658 63.861 26.1179 63.4269C26.6507 64.2376 26.4918 72.6067 26.4106 76.8839C26.3976 77.5703 26.3866 78.1513 26.381 78.5788ZM63.4224 86.8699L63.6985 86.377C64.1842 85.5063 64.6727 84.6316 65.3024 83.8562C65.3588 84.6572 65.2997 85.7474 65.1556 86.4032C64.3661 86.693 64.0457 86.7957 63.4224 86.8699ZM27.7615 84.1299C28.5104 85.052 29.058 86.1144 29.6407 87.1437C29.4265 87.1181 29.3286 87.1102 29.2326 87.0918C29.0497 87.0566 28.8743 86.9833 27.9074 86.6769C27.7615 85.7474 27.7043 84.9309 27.7615 84.1299Z" fill="black"/>
<path d="M61.4915 55.3433L61.5275 55.4011C63.1767 58.0702 64.4215 60.0845 64.8666 60.7831L64.8684 81.592L61.1341 87.3917C57.7064 87.85 54.2841 88.3674 50.8629 88.8847L48.4407 89.2502L46.4323 89.5498C43.1107 89.2738 39.743 88.7296 36.3974 88.189C34.7482 87.9226 33.1045 87.657 31.4746 87.4249L27.7523 81.317L27.7108 60.8411L46.2227 31.3454M61.4915 55.3433L61.4859 55.3329L61.4361 55.2528C56.1929 46.7691 47.0085 31.9094 46.2227 31.3454M61.4915 55.3433C60.1821 53.2238 58.6205 50.6971 57.0036 48.0912C52.1593 40.2863 46.8136 31.7698 46.2227 31.3454M64.8315 58.148C58.8533 48.7191 52.9239 39.2594 47.0436 29.7695C47.0334 28.5798 47.0057 27.3895 46.978 26.1995L46.9438 24.6842C48.0704 25.1647 49.9487 26.8136 51.4797 28.1584C51.8823 28.5118 52.26 28.8442 52.5943 29.1289L52.8224 29.3209L53.0708 29.5242C61.1212 35.9749 69.0931 42.5219 76.9875 49.1636L77.0105 93.5789L66.2397 93.5731V88.4268L66.224 81.7435L72.7185 71.3152C71.4183 68.994 70.0156 66.7199 68.6139 64.448C67.8068 63.14 67.0006 61.8328 66.2148 60.5176M64.8315 58.148C64.8306 57.858 64.8177 57.4042 64.802 56.8478M64.8315 58.148C64.8315 58.1434 64.8315 58.1389 64.8315 58.1343C64.8315 57.8437 64.8177 57.3955 64.802 56.8478M64.802 56.8478V56.8194V56.79V56.7748V56.7557C64.7308 54.099 64.6016 49.2677 65.2794 48.5556C65.2969 48.5362 65.3163 48.5184 65.3375 48.5012L65.3883 48.4598L65.4391 48.4185L66.0366 48.6798C66.4974 50.7792 66.3866 54.0542 66.2877 56.972M66.2877 56.972L66.2859 57.0146L66.2804 57.1928C66.2406 58.4084 66.2037 59.5544 66.2148 60.5176M66.2877 56.972C66.2813 57.1623 66.2757 57.354 66.2693 57.5408C66.2342 58.6267 66.2046 59.6468 66.2148 60.5176M29.2326 87.0918C29.3286 87.1102 29.4265 87.1181 29.6407 87.1437C29.058 86.1144 28.5104 85.052 27.7615 84.1299C27.7043 84.9309 27.7615 85.7474 27.9074 86.6769M29.2326 87.0918C29.0497 87.0566 28.8743 86.9833 27.9074 86.6769M29.2326 87.0918C29.0516 87.057 28.8817 86.9861 27.9435 86.6883C27.9315 86.6845 27.9195 86.6807 27.9074 86.6769M75.3041 45.9702L75.3595 46.0161L75.9181 46.4813L76.3669 46.8557L78.3532 48.5081L78.3569 94.6688C67.7772 103.405 57.1311 112.061 46.4212 120.634C45.7415 120.567 28.1014 106.059 19.1405 98.6886L18.8902 98.4827C16.5937 96.5942 14.9056 95.206 14.2814 94.7019L14.25 48.5334L46.1534 22.3931C47.1932 22.5404 67.1096 39.1393 75.3041 45.9702ZM66.2499 63.2599C67.5528 64.8884 68.672 66.8853 69.7561 68.82C70.0692 69.3771 70.3785 69.9292 70.6888 70.4657C70.843 70.7326 70.9972 70.9956 71.1523 71.2535L70.5309 72.2682L69.8854 73.3173C69.3221 74.2282 68.7561 75.1371 68.1854 76.0439L66.2148 79.2409C66.2129 77.7038 66.2 76.1637 66.1871 74.6225C66.1557 70.8329 66.1252 67.0364 66.2499 63.2599ZM45.3934 24.7683L45.5476 24.9006C45.8588 25.8247 45.772 27.2512 45.6972 28.4865C45.6695 28.9398 45.6437 29.3674 45.639 29.7349L27.672 58.4085C27.6766 57.9652 27.6895 57.497 27.7071 57.0125L27.7237 56.568L27.7597 55.6995C27.8511 53.5327 27.949 51.2052 27.708 49.3832C27.6406 48.8726 27.4882 48.6882 27.093 48.3894L26.6774 48.4682C26.0495 49.445 26.2296 55.4913 26.3275 58.7854L26.3561 59.8042C26.3644 60.1028 26.3699 60.3515 26.3718 60.5378C24.2156 64.062 22.089 67.6036 19.99 71.1621L26.3847 81.6488L26.3579 87.6456L26.3367 93.5809L15.5982 93.5653L15.6388 49.1873C22.0363 43.6688 28.6333 38.3439 35.2247 33.024C38.6256 30.2795 42.0248 27.5362 45.3934 24.7683ZM38.5001 89.8427C36.4796 89.4826 34.461 89.1227 32.4525 88.96L34.0057 91.4537C38.1464 98.0988 42.2972 104.762 46.2568 111.508C48.2643 108.27 50.2525 105.02 52.2175 101.758C53.1068 100.325 53.9887 98.8854 54.8705 97.446C56.6167 94.5946 58.3648 91.7425 60.1701 88.9326C59.0453 89.0919 57.7073 89.3227 56.2834 89.5685C52.7494 90.1783 48.6836 90.8799 46.026 90.8075C43.5299 90.7393 41.0145 90.2909 38.5001 89.8427ZM27.6821 88.2393L30.7239 88.6787C32.7628 92.0608 34.8368 95.422 36.9108 98.7834L36.9191 98.7983L36.9746 98.8886C39.8815 103.602 42.7884 108.316 45.6003 113.088C45.5984 113.831 45.6003 114.575 45.6067 115.318C45.615 116.384 45.6307 117.45 45.6547 118.515L39.5915 113.553L16.7045 94.8836C19.2725 94.9193 21.8433 94.9116 24.4132 94.9038C25.4982 94.9005 26.5833 94.8972 27.6674 94.8972C27.7274 92.6805 27.6868 90.4579 27.6821 88.2393ZM64.1131 88.3398L63.9995 88.3506L61.8941 88.6749L47.0039 112.908L46.9457 118.498C47.9051 117.716 48.8655 116.936 49.8286 116.159C51.0337 115.186 52.2425 114.216 53.4531 113.25C60.9882 107.203 68.4624 101.083 75.8757 94.8855L64.8823 94.8972C64.8888 94.4065 64.9091 93.8946 64.9303 93.3727L64.9331 93.3275C65.0005 91.7064 65.0716 89.9916 64.7475 88.5147C64.4584 88.2977 64.4215 88.3023 64.199 88.3296L64.1131 88.3398ZM26.381 78.5788L26.3764 79.0768L24.7854 76.4775C24.1094 75.2348 23.354 74.0164 22.6015 72.8034C22.2662 72.2624 21.932 71.7225 21.6051 71.182C22.534 69.4385 23.5544 67.7333 24.5739 66.0305L25.3533 64.7268C25.61 64.2941 25.8658 63.861 26.1179 63.4269C26.6507 64.2376 26.4918 72.6067 26.4106 76.8839C26.3976 77.5703 26.3866 78.1513 26.381 78.5788ZM63.4224 86.8699L63.6985 86.377C64.1842 85.5063 64.6727 84.6316 65.3024 83.8562C65.3588 84.6572 65.2997 85.7474 65.1556 86.4032C64.3661 86.693 64.0457 86.7957 63.4224 86.8699Z" stroke="black" stroke-width="0.814285"/>
<path fill-rule="evenodd" clip-rule="evenodd" d="M61.5271 55.401C60.8733 54.3438 60.1567 53.1839 59.4014 51.9624C60.1429 53.1616 60.8475 54.3017 61.4911 55.3432L61.5271 55.401Z" fill="black" stroke="black" stroke-width="0.814285"/>
<path fill-rule="evenodd" clip-rule="evenodd" d="M64.8303 58.1471C64.8294 57.8471 64.8165 57.3718 64.8008 56.7891V56.8184C64.8165 57.3878 64.8294 57.8522 64.8303 58.1471Z" fill="black"/>
<path d="M64.8008 56.8184V56.7891C64.8165 57.3718 64.8294 57.8471 64.8303 58.1471C64.8294 57.8522 64.8165 57.3878 64.8008 56.8184ZM64.8008 56.8184V56.8469C64.8165 57.3946 64.8303 57.8426 64.8303 58.1331" stroke="black" stroke-width="0.814285"/>
<path fill-rule="evenodd" clip-rule="evenodd" d="M27.7187 56.6919C27.6957 57.2902 27.6772 57.8672 27.6717 58.4074C27.6763 57.964 27.6892 57.4959 27.7067 57.0114C27.7104 56.9066 27.7151 56.7981 27.7187 56.6919ZM26.3715 60.5366C26.3687 60.1665 26.3502 59.5497 26.3271 58.7843L26.3558 59.803C26.3641 60.1017 26.3696 60.3504 26.3715 60.5366Z" fill="black" stroke="black" stroke-width="0.814285"/>
<path fill-rule="evenodd" clip-rule="evenodd" d="M64.8884 94.5838C64.8986 94.1753 64.9161 93.7543 64.9337 93.3267L64.9309 93.3719C64.9143 93.7853 64.8977 94.1885 64.8884 94.5838Z" fill="black"/>
<path d="M64.9309 93.3719L64.9337 93.3267C64.9161 93.7543 64.8986 94.1753 64.8884 94.5838C64.8977 94.1885 64.9143 93.7853 64.9309 93.3719ZM64.9309 93.3719C64.9198 93.6383 64.9087 93.9006 64.9004 94.1603C64.8958 94.292 64.8921 94.4244 64.8894 94.5538" stroke="black" stroke-width="0.814285"/>
<path fill-rule="evenodd" clip-rule="evenodd" d="M26.1173 63.4272C25.8135 63.9505 25.505 64.4723 25.1938 64.9937L25.3527 64.7272C25.6094 64.2945 25.8652 63.8614 26.1173 63.4272ZM26.3758 79.0772C26.3758 78.5539 26.4008 77.3768 26.4285 75.8898C26.422 76.2399 26.4155 76.5729 26.41 76.8843C26.3906 77.8949 26.3758 78.6771 26.3758 79.0772Z" fill="black" stroke="black" stroke-width="0.814285"/>
<path d="M226.86 113.931V110.875H229.961C231.025 110.875 231.937 110.739 232.697 110.465C233.457 110.222 234.095 109.781 234.612 109.143C235.129 108.504 235.57 107.623 235.935 106.498L244.051 80.4146H247.38L238.899 107.455C238.412 109.006 237.743 110.252 236.892 111.195C236.041 112.167 235.023 112.867 233.837 113.292C232.651 113.718 231.299 113.931 229.779 113.931H226.86ZM234.703 103.944V101.071H239.035V103.944H234.703ZM234.293 103.944L225.538 80.4146H229.049L237.485 103.944H234.293Z" fill="black"/>
<path d="M210.266 104.536V80.4137H213.002V90.4913H212.728C212.728 86.9649 213.503 84.3657 215.054 82.6937C216.604 80.9913 219.036 80.1401 222.35 80.1401H223.125V83.2409H221.711C219.097 83.2409 217.106 83.9249 215.738 85.2929C214.37 86.6305 213.686 88.6065 213.686 91.2209V104.536H210.266Z" fill="black"/>
<path d="M198.438 104.538V71.25H201.858V104.538H198.438ZM194.927 74.0316V71.25H201.858V74.0316H194.927Z" fill="black"/>
<path d="M180.956 105.312C178.889 105.312 177.095 104.963 175.575 104.263C174.055 103.534 172.809 102.576 171.836 101.391C170.863 100.175 170.134 98.8217 169.647 97.3321C169.191 95.8425 168.963 94.3073 168.963 92.7265V92.0881C168.963 90.5377 169.191 89.0177 169.647 87.5281C170.134 86.0385 170.863 84.7009 171.836 83.5153C172.809 82.3298 174.025 81.3873 175.484 80.6881C176.974 79.9585 178.706 79.5938 180.682 79.5938C183.206 79.5938 185.303 80.1561 186.975 81.2809C188.678 82.4057 189.954 83.8497 190.806 85.6129C191.657 87.3457 192.082 89.2153 192.082 91.2217V93.0001H170.514V90.3553H189.711L188.845 91.6777C188.845 89.8841 188.526 88.3185 187.887 86.9809C187.279 85.613 186.367 84.5489 185.151 83.7889C183.966 82.9985 182.476 82.6033 180.682 82.6033C178.798 82.6033 177.232 83.0441 175.986 83.9257C174.739 84.8073 173.797 85.9777 173.158 87.4369C172.55 88.8961 172.246 90.5529 172.246 92.4073C172.246 94.2313 172.55 95.9033 173.158 97.4233C173.797 98.9129 174.754 100.099 176.031 100.98C177.338 101.862 178.98 102.303 180.956 102.303C183.054 102.303 184.756 101.831 186.063 100.889C187.37 99.9161 188.176 98.7761 188.48 97.4689H191.672C191.368 99.0801 190.73 100.479 189.757 101.664C188.784 102.819 187.553 103.716 186.063 104.355C184.574 104.993 182.871 105.312 180.956 105.312Z" fill="black"/>
<path d="M118.82 107.264C116.753 107.264 114.959 106.915 113.439 106.215C111.919 105.486 110.673 104.528 109.7 103.343C108.727 102.127 107.998 100.774 107.511 99.2843C107.055 97.7947 106.827 96.2595 106.827 94.6787V94.0403C106.827 92.4899 107.055 90.9699 107.511 89.4803C107.998 87.9907 108.727 86.6531 109.7 85.4675C110.673 84.2819 111.889 83.3395 113.348 82.6403C114.838 81.9107 116.57 81.5459 118.546 81.5459C121.07 81.5459 123.167 82.1083 124.839 83.2331C126.542 84.3579 127.818 85.8019 128.67 87.5651C129.521 89.2979 129.946 91.1675 129.946 93.1739V94.9523H108.378V92.3075H127.575L126.709 93.6299C126.709 91.8363 126.39 90.2707 125.751 88.9331C125.143 87.5651 124.231 86.5011 123.015 85.7411C121.83 84.9507 120.34 84.5555 118.546 84.5555C116.662 84.5555 115.096 84.9963 113.85 85.8779C112.603 86.7595 111.661 87.9299 111.022 89.3891C110.414 90.8483 110.11 92.5051 110.11 94.3595C110.11 96.1835 110.414 97.8555 111.022 99.3755C111.661 100.865 112.618 102.051 113.895 102.932C115.202 103.814 116.844 104.255 118.82 104.255C120.918 104.255 122.62 103.783 123.927 102.841C125.234 101.868 126.04 100.728 126.344 99.4211H129.536C129.232 101.032 128.594 102.431 127.621 103.616C126.648 104.771 125.417 105.668 123.927 106.307C122.438 106.945 120.735 107.264 118.82 107.264Z" fill="black"/>
<path d="M90.6548 115.746V112.691H93.3908C94.5764 112.691 95.4732 112.341 96.0812 111.642C96.7196 110.973 97.0388 110 97.0388 108.724V82.3668H100.322V108.085C100.322 109.97 100.064 111.475 99.5468 112.6C99.0604 113.724 98.27 114.53 97.1756 115.016C96.0812 115.503 94.622 115.746 92.798 115.746H90.6548ZM93.1172 85.1028V82.3668H100.322V85.1028H93.1172ZM97.6772 77.4876C96.8564 77.4876 96.2332 77.2748 95.8076 76.8492C95.4124 76.3932 95.2148 75.8308 95.2148 75.162C95.2148 74.4932 95.4124 73.946 95.8076 73.5204C96.2332 73.0644 96.8564 72.8364 97.6772 72.8364C98.498 72.8364 99.106 73.0644 99.5012 73.5204C99.8964 73.946 100.094 74.4932 100.094 75.162C100.094 75.8308 99.8964 76.3932 99.5012 76.8492C99.106 77.2748 98.498 77.4876 97.6772 77.4876Z" fill="black"/>
<path d="M318.122 68.4127C316.055 68.4127 314.261 68.0631 312.741 67.3639C311.221 66.6343 309.975 65.6767 309.002 64.4911C308.029 63.2751 307.3 61.9223 306.813 60.4327C306.357 58.9431 306.129 57.4079 306.129 55.8271V55.1887C306.129 53.6383 306.357 52.1183 306.813 50.6287C307.3 49.1391 308.029 47.8015 309.002 46.6159C309.975 45.4303 311.191 44.4879 312.65 43.7887C314.14 43.0591 315.873 42.6943 317.849 42.6943C320.372 42.6943 322.469 43.2567 324.141 44.3815C325.844 45.5063 327.121 46.9503 327.972 48.7135C328.823 50.4463 329.249 52.3159 329.249 54.3223V56.1007H307.68V53.4559H326.877L326.011 54.7783C326.011 52.9847 325.692 51.4191 325.053 50.0815C324.445 48.7135 323.533 47.6495 322.317 46.8895C321.132 46.0991 319.642 45.7039 317.849 45.7039C315.964 45.7039 314.398 46.1447 313.152 47.0263C311.905 47.9079 310.963 49.0783 310.325 50.5375C309.717 51.9967 309.413 53.6535 309.413 55.5079C309.413 57.3319 309.717 59.0039 310.325 60.5239C310.963 62.0135 311.921 63.1991 313.197 64.0807C314.505 64.9623 316.146 65.4031 318.122 65.4031C320.22 65.4031 321.922 64.9319 323.229 63.9895C324.537 63.0167 325.342 61.8767 325.646 60.5695H328.838C328.534 62.1807 327.896 63.5791 326.923 64.7647C325.95 65.9199 324.719 66.8167 323.229 67.4551C321.74 68.0935 320.037 68.4127 318.122 68.4127Z" fill="black"/>
<path d="M287.224 68.4118C285.461 68.4118 283.85 68.0926 282.391 67.4542C280.962 66.7854 279.715 65.8734 278.651 64.7182C277.618 63.5326 276.812 62.195 276.235 60.7054C275.687 59.1854 275.414 57.5742 275.414 55.8718V55.2334C275.414 53.5918 275.687 52.0262 276.235 50.5366C276.782 49.0166 277.557 47.679 278.56 46.5238C279.594 45.3382 280.825 44.411 282.254 43.7422C283.713 43.043 285.339 42.6934 287.133 42.6934C289.17 42.6934 290.963 43.1342 292.514 44.0158C294.064 44.8974 295.311 46.1742 296.253 47.8462C297.195 49.4878 297.697 51.5094 297.758 53.911L296.253 51.0838V34.3486H299.673V67.6366H296.937V56.9206H298.031C297.971 59.4438 297.439 61.5718 296.435 63.3046C295.463 65.007 294.171 66.2838 292.559 67.135C290.979 67.9862 289.2 68.4118 287.224 68.4118ZM287.68 65.4022C289.322 65.4022 290.796 65.0374 292.103 64.3078C293.441 63.5782 294.49 62.5446 295.25 61.207C296.01 59.839 296.39 58.2734 296.39 56.5102V54.3214C296.39 52.619 296.01 51.1294 295.25 49.8526C294.49 48.5454 293.441 47.527 292.103 46.7974C290.796 46.0678 289.307 45.703 287.635 45.703C285.841 45.703 284.275 46.1438 282.938 47.0254C281.631 47.8766 280.612 49.047 279.883 50.5366C279.183 52.0262 278.834 53.6982 278.834 55.5526C278.834 57.4678 279.199 59.1702 279.928 60.6598C280.658 62.1494 281.691 63.3198 283.029 64.171C284.367 64.9918 285.917 65.4022 287.68 65.4022Z" fill="black"/>
<path d="M266.507 67.6372V60.3868H265.959V51.814C265.959 50.0204 265.488 48.6524 264.546 47.71C263.603 46.7372 262.144 46.2508 260.168 46.2508C259.256 46.2508 258.329 46.266 257.387 46.2964C256.475 46.3268 255.593 46.3724 254.742 46.4332C253.921 46.4636 253.191 46.5092 252.553 46.57V43.5604C253.222 43.4996 253.906 43.4388 254.605 43.378C255.304 43.3172 256.019 43.2868 256.748 43.2868C257.508 43.2564 258.238 43.2412 258.937 43.2412C261.399 43.2412 263.375 43.5452 264.865 44.1532C266.385 44.7612 267.495 45.7188 268.194 47.026C268.893 48.3028 269.243 50.0052 269.243 52.1332V67.6372H266.507ZM258.344 68.2756C256.642 68.2756 255.137 67.9716 253.83 67.3636C252.523 66.7556 251.504 65.874 250.775 64.7188C250.075 63.5636 249.726 62.1652 249.726 60.5236C249.726 58.9124 250.091 57.5444 250.82 56.4196C251.58 55.2948 252.659 54.4436 254.058 53.866C255.487 53.258 257.204 52.954 259.211 52.954H266.279V55.5532H258.983C257.067 55.5532 255.593 56.0244 254.559 56.9668C253.556 57.8788 253.055 59.0796 253.055 60.5692C253.055 62.0892 253.587 63.3052 254.651 64.2172C255.715 65.0988 257.159 65.5396 258.983 65.5396C260.107 65.5396 261.187 65.342 262.22 64.9468C263.254 64.5212 264.12 63.822 264.819 62.8492C265.519 61.846 265.899 60.478 265.959 58.7452L266.963 60.1588C266.841 61.9524 266.415 63.4572 265.686 64.6732C264.956 65.8588 263.968 66.7556 262.722 67.3636C261.475 67.9716 260.016 68.2756 258.344 68.2756Z" fill="black"/>
<path d="M208.416 67.6376V43.4696H211.152V53.6384H210.605C210.605 51.4192 210.909 49.504 211.517 47.8928C212.155 46.2816 213.098 45.0352 214.344 44.1536C215.59 43.2416 217.171 42.7856 219.086 42.7856H219.223C221.138 42.7856 222.719 43.2264 223.966 44.108C225.212 44.9896 226.139 46.236 226.747 47.8472C227.355 49.4584 227.659 51.3888 227.659 53.6384H226.565C226.565 51.4192 226.869 49.504 227.477 47.8928C228.115 46.2816 229.058 45.0352 230.304 44.1536C231.581 43.2416 233.177 42.7856 235.092 42.7856H235.229C237.144 42.7856 238.725 43.2264 239.971 44.108C241.248 44.9896 242.19 46.236 242.798 47.8472C243.437 49.4584 243.756 51.3888 243.756 53.6384V67.6376H240.336V52.8632C240.336 50.7352 239.819 49.048 238.786 47.8016C237.752 46.5552 236.262 45.932 234.317 45.932C232.31 45.932 230.714 46.5856 229.529 47.8928C228.374 49.1696 227.796 50.9024 227.796 53.0912V67.6376H224.376V52.8632C224.376 50.7352 223.859 49.048 222.826 47.8016C221.792 46.5552 220.302 45.932 218.357 45.932C216.35 45.932 214.754 46.5856 213.569 47.8928C212.414 49.1696 211.836 50.9024 211.836 53.0912V67.6376H208.416Z" fill="black"/>
<path d="M187.596 68.4118C185.832 68.4118 184.221 68.0926 182.762 67.4542C181.333 66.7854 180.087 65.8734 179.023 64.7182C177.989 63.5326 177.184 62.195 176.606 60.7054C176.059 59.1854 175.785 57.5742 175.785 55.8718V55.2334C175.785 53.5918 176.059 52.0262 176.606 50.5366C177.153 49.0166 177.928 47.679 178.932 46.5238C179.965 45.3382 181.196 44.411 182.625 43.7422C184.084 43.043 185.711 42.6934 187.504 42.6934C189.541 42.6934 191.335 43.1342 192.885 44.0158C194.436 44.8974 195.682 46.1742 196.624 47.8462C197.567 49.4878 198.068 51.5094 198.129 53.911L196.624 51.0838V34.3486H200.044V67.6366H197.308V56.9206H198.403C198.342 59.4438 197.81 61.5718 196.807 63.3046C195.834 65.007 194.542 66.2838 192.931 67.135C191.35 67.9862 189.572 68.4118 187.596 68.4118ZM188.052 65.4022C189.693 65.4022 191.168 65.0374 192.475 64.3078C193.812 63.5782 194.861 62.5446 195.621 61.207C196.381 59.839 196.761 58.2734 196.761 56.5102V54.3214C196.761 52.619 196.381 51.1294 195.621 49.8526C194.861 48.5454 193.812 47.527 192.475 46.7974C191.168 46.0678 189.678 45.703 188.006 45.703C186.212 45.703 184.647 46.1438 183.309 47.0254C182.002 47.8766 180.984 49.047 180.254 50.5366C179.555 52.0262 179.205 53.6982 179.205 55.5526C179.205 57.4678 179.57 59.1702 180.3 60.6598C181.029 62.1494 182.063 63.3198 183.4 64.171C184.738 64.9918 186.288 65.4022 188.052 65.4022Z" fill="black"/>
<path d="M149.21 67.6376V43.5152H151.946V53.6384H151.399C151.399 51.3888 151.734 49.4584 152.402 47.8472C153.071 46.236 154.074 44.9896 155.412 44.108C156.75 43.2264 158.437 42.7856 160.474 42.7856H160.61C163.65 42.7856 165.915 43.7432 167.405 45.6584C168.894 47.5432 169.639 50.2032 169.639 53.6384V67.6376H166.265V52.9088C166.265 50.8112 165.687 49.124 164.532 47.8472C163.377 46.5704 161.766 45.932 159.698 45.932C157.57 45.932 155.853 46.6008 154.546 47.9384C153.269 49.2456 152.63 50.9784 152.63 53.1368V67.6376H149.21Z" fill="black"/>
<path d="M138.387 67.6372V60.3868H137.84V51.814C137.84 50.0204 137.368 48.6524 136.426 47.71C135.484 46.7372 134.024 46.2508 132.048 46.2508C131.136 46.2508 130.209 46.266 129.267 46.2964C128.355 46.3268 127.473 46.3724 126.622 46.4332C125.801 46.4636 125.072 46.5092 124.433 46.57V43.5604C125.102 43.4996 125.786 43.4388 126.485 43.378C127.184 43.3172 127.899 43.2868 128.628 43.2868C129.388 43.2564 130.118 43.2412 130.817 43.2412C133.28 43.2412 135.256 43.5452 136.745 44.1532C138.265 44.7612 139.375 45.7188 140.074 47.026C140.773 48.3028 141.123 50.0052 141.123 52.1332V67.6372H138.387ZM130.224 68.2756C128.522 68.2756 127.017 67.9716 125.71 67.3636C124.403 66.7556 123.384 65.874 122.655 64.7188C121.956 63.5636 121.606 62.1652 121.606 60.5236C121.606 58.9124 121.971 57.5444 122.7 56.4196C123.46 55.2948 124.54 54.4436 125.938 53.866C127.367 53.258 129.084 52.954 131.091 52.954H138.159V55.5532H130.863C128.948 55.5532 127.473 56.0244 126.44 56.9668C125.436 57.8788 124.935 59.0796 124.935 60.5692C124.935 62.0892 125.467 63.3052 126.531 64.2172C127.595 65.0988 129.039 65.5396 130.863 65.5396C131.988 65.5396 133.067 65.342 134.1 64.9468C135.134 64.5212 136 63.822 136.7 62.8492C137.399 61.846 137.779 60.478 137.84 58.7452L138.843 60.1588C138.721 61.9524 138.296 63.4572 137.566 64.6732C136.836 65.8588 135.848 66.7556 134.602 67.3636C133.356 67.9716 131.896 68.2756 130.224 68.2756Z" fill="black"/>
<path d="M95.2153 67.6366V34.3486H98.6353V53.1814L97.6321 53.9566C97.6321 51.707 97.9513 49.7462 98.5897 48.0742C99.2585 46.4022 100.247 45.1102 101.554 44.1982C102.891 43.2558 104.563 42.7846 106.57 42.7846H106.752C109.671 42.7846 111.875 43.7422 113.364 45.6574C114.884 47.5726 115.644 50.2326 115.644 53.6374V67.6366H112.27V52.9078C112.27 50.7494 111.677 49.047 110.491 47.8006C109.306 46.5542 107.71 45.931 105.703 45.931C103.545 45.931 101.827 46.6302 100.551 48.0286C99.2737 49.3966 98.6353 51.2054 98.6353 53.455V67.6366H95.2153Z" fill="black"/>
<path d="M142.694 103.82L147.479 82.1402H151.925L157.472 103.82H154.719L149.172 82.2673H150.189L145.362 103.82H142.694ZM140.873 103.82V101.237H144.726V103.82H140.873ZM140.111 103.82L133.633 81.4204H136.681L143.075 103.82H140.111ZM155.439 103.82V101.237H159.208V103.82H155.439ZM157.091 103.82L162.68 81.4204H165.601L159.885 103.82H157.091Z" fill="black"/>
</svg>
