<svg width="217" height="93" viewBox="0 0 217 93" fill="none" xmlns="http://www.w3.org/2000/svg">
<path fill-rule="evenodd" clip-rule="evenodd" d="M47.7806 29.1678L47.8158 29.1969L48.1703 29.4921L48.455 29.7297L49.7153 30.7781L49.7177 60.0672C43.0048 65.6102 36.2498 71.1023 29.4543 76.5425C29.0231 76.4996 17.8304 67.2942 12.1446 62.6178L11.9859 62.4872C10.5287 61.2889 9.45763 60.4081 9.06155 60.0882L9.04163 30.7941L29.2844 14.208C29.9442 14.3015 42.5812 24.8336 47.7806 29.1678ZM39.0393 35.1517L39.0165 35.1151L39.013 35.1085L38.9813 35.0576C35.6545 29.6747 29.827 20.2461 29.3284 19.8883L17.5825 38.6034L17.6089 51.5954L19.9707 55.4709C21.0049 55.6182 22.0478 55.7867 23.0942 55.9557C25.217 56.2987 27.3538 56.644 29.4614 56.8192L30.7357 56.6291L32.2726 56.3971C34.4434 56.069 36.6148 55.7407 38.7897 55.4499L41.1592 51.7699L41.158 38.5666C40.8756 38.1234 40.0858 36.8452 39.0393 35.1517ZM42.0357 40.1382C42.8624 41.1714 43.5726 42.4385 44.2604 43.666C44.4591 44.0196 44.6553 44.3698 44.8522 44.7103C44.9501 44.8796 45.0479 45.0465 45.1463 45.2101L44.752 45.854L44.3425 46.5196C43.9851 47.0976 43.6259 47.6743 43.2638 48.2496L42.0135 50.2781C42.0123 49.3028 42.0041 48.3257 41.9959 47.3478C41.976 44.9433 41.9566 42.5343 42.0357 40.1382ZM32.664 17.8661C31.6925 17.0129 30.5008 15.9666 29.786 15.6617L29.8077 16.6232C29.8252 17.3783 29.8428 18.1335 29.8493 18.8884C33.5804 24.9097 37.3425 30.912 41.1358 36.8946C41.1352 36.7106 41.127 36.4227 41.117 36.0697V36.0516V36.033V36.0233V36.0112C41.0719 34.3255 40.9899 31.26 41.4199 30.8083C41.4311 30.7959 41.4434 30.7846 41.4568 30.7737L41.4891 30.7475L41.5213 30.7212L41.9004 30.8871C42.1927 32.2191 42.1224 34.2971 42.0597 36.1484L42.0586 36.1755L42.0551 36.2886C42.0299 37.0599 42.0064 37.787 42.0135 38.3982C42.5121 39.2326 43.0236 40.0621 43.5357 40.892C44.4251 42.3335 45.3151 43.7765 46.1401 45.2493L42.0193 51.8661L42.0293 56.1066V59.372L48.8634 59.3757L48.8488 31.194C43.8398 26.9798 38.7815 22.8257 33.6735 18.7327L33.5159 18.6037L33.3712 18.4819C33.1591 18.3013 32.9195 18.0904 32.664 17.8661ZM28.8022 15.7151L28.9001 15.799C29.0975 16.3854 29.0424 17.2905 28.995 18.0743C28.9774 18.3619 28.961 18.6332 28.9581 18.8664L17.5579 37.0599C17.5608 36.7786 17.569 36.4816 17.5802 36.1742L17.5907 35.8921L17.6136 35.3411C17.6716 33.9662 17.7337 32.4894 17.5808 31.3333C17.538 31.0094 17.4413 30.8924 17.1905 30.7028L16.9269 30.7527C16.5285 31.3726 16.6427 35.209 16.7048 37.2991L16.723 37.9455C16.7283 38.135 16.7318 38.2928 16.7329 38.4109C15.3648 40.6471 14.0155 42.8943 12.6837 45.1521L16.7411 51.8059L16.7242 55.611L16.7107 59.3769L9.89706 59.367L9.92284 31.209C13.9821 27.7075 18.1679 24.3289 22.3501 20.9534C24.508 19.2119 26.6648 17.4713 28.8022 15.7151ZM24.4284 57.005C23.1464 56.7765 21.8656 56.5482 20.5912 56.4449L21.5767 58.0272C24.204 62.2435 26.8376 66.4716 29.3501 70.7516C30.6238 68.697 31.8853 66.635 33.1321 64.5655C33.6964 63.6559 34.2559 62.7426 34.8155 61.8293C35.9234 60.0201 37.0326 58.2104 38.1781 56.4276C37.4644 56.5286 36.6154 56.6751 35.7119 56.831C33.4696 57.218 30.8898 57.6632 29.2036 57.6172C27.6198 57.5739 26.0238 57.2894 24.4284 57.005ZM17.5644 55.9877L19.4944 56.2665C20.7881 58.4124 22.104 60.5451 23.42 62.6779L23.4253 62.6874L23.4604 62.7447C25.3049 65.7354 27.1494 68.7263 28.9335 71.7541C28.9323 72.2257 28.9335 72.6975 28.9376 73.1693C28.9428 73.8456 28.9528 74.522 28.968 75.1979L25.1209 72.0491L10.599 60.2035C12.2284 60.2261 13.8596 60.2212 15.4902 60.2163C16.1787 60.2142 16.8671 60.2122 17.555 60.2122C17.5931 58.8056 17.5673 57.3954 17.5644 55.9877ZM40.6799 56.0514L40.6078 56.0583L39.272 56.264L29.8241 71.6401L29.7871 75.1868C30.3959 74.6905 31.0053 74.1959 31.6164 73.7028C32.381 73.0853 33.148 72.4702 33.9161 71.857C38.6972 68.0204 43.4396 64.1367 48.1433 60.2047L41.168 60.2122C41.1721 59.9008 41.185 59.576 41.1984 59.2448L41.2002 59.2161C41.243 58.1876 41.2881 57.0995 41.0824 56.1624C40.899 56.0247 40.8756 56.0276 40.7344 56.0449L40.6799 56.0514ZM16.7388 49.8581L16.7359 50.174L15.7263 48.5248C15.2974 47.7363 14.8182 46.9632 14.3406 46.1936C14.128 45.8503 13.9159 45.5077 13.7084 45.1648C14.2979 44.0585 14.9453 42.9765 15.5922 41.8961L16.0867 41.0689C16.2496 40.7944 16.4119 40.5196 16.5718 40.2441C16.9099 40.7585 16.8091 46.0687 16.7576 48.7826C16.7493 49.2182 16.7423 49.5868 16.7388 49.8581ZM40.2416 55.1188L40.4168 54.806C40.725 54.2536 41.035 53.6986 41.4346 53.2066C41.4703 53.7148 41.4328 54.4065 41.3414 54.8226C40.8405 55.0065 40.6371 55.0717 40.2416 55.1188ZM17.6147 53.3803C18.0899 53.9653 18.4374 54.6394 18.8071 55.2925C18.6712 55.2763 18.609 55.2712 18.5481 55.2595C18.4321 55.2372 18.3208 55.1907 17.7073 54.9963C17.6147 54.4065 17.5784 53.8885 17.6147 53.3803Z" fill="black"/>
<path d="M39.0165 35.1151L39.0393 35.1517C40.0858 36.8452 40.8756 38.1234 41.158 38.5666L41.1592 51.7699L38.7897 55.4499C36.6148 55.7407 34.4434 56.069 32.2726 56.3971L30.7357 56.6291L29.4614 56.8192C27.3538 56.644 25.217 56.2987 23.0942 55.9557C22.0478 55.7867 21.0049 55.6182 19.9707 55.4709L17.6089 51.5954L17.5825 38.6034L29.3284 19.8883M39.0165 35.1151L39.013 35.1085L38.9813 35.0576C35.6545 29.6747 29.827 20.2461 29.3284 19.8883M39.0165 35.1151C38.1857 33.7702 37.1949 32.167 36.1689 30.5136C33.0952 25.5613 29.7034 20.1575 29.3284 19.8883M41.1358 36.8946C37.3425 30.912 33.5804 24.9097 29.8493 18.8884C29.8428 18.1335 29.8252 17.3783 29.8077 16.6232L29.786 15.6617C30.5008 15.9666 31.6925 17.0129 32.664 17.8661C32.9195 18.0904 33.1591 18.3013 33.3712 18.4819L33.5159 18.6037L33.6735 18.7327C38.7815 22.8257 43.8398 26.9798 48.8488 31.194L48.8634 59.3757L42.0293 59.372V56.1066L42.0193 51.8661L46.1401 45.2493C45.3151 43.7765 44.4251 42.3335 43.5357 40.892C43.0236 40.0621 42.5121 39.2326 42.0135 38.3982M41.1358 36.8946C41.1352 36.7106 41.127 36.4227 41.117 36.0697M41.1358 36.8946C41.1358 36.8917 41.1358 36.8889 41.1358 36.8859C41.1358 36.7016 41.127 36.4172 41.117 36.0697M41.117 36.0697V36.0516V36.033V36.0233V36.0112C41.0719 34.3255 40.9899 31.26 41.4199 30.8083C41.4311 30.7959 41.4434 30.7846 41.4568 30.7737L41.4891 30.7475L41.5213 30.7212L41.9004 30.8871C42.1927 32.2191 42.1224 34.2971 42.0597 36.1484M42.0597 36.1484L42.0586 36.1755L42.0551 36.2886C42.0299 37.0599 42.0064 37.787 42.0135 38.3982M42.0597 36.1484C42.0556 36.2692 42.0521 36.3908 42.048 36.5094C42.0258 37.1984 42.007 37.8457 42.0135 38.3982M18.5481 55.2595C18.609 55.2712 18.6712 55.2763 18.8071 55.2925C18.4374 54.6394 18.0899 53.9653 17.6147 53.3803C17.5784 53.8885 17.6147 54.4065 17.7073 54.9963M18.5481 55.2595C18.4321 55.2372 18.3208 55.1907 17.7073 54.9963M18.5481 55.2595C18.4333 55.2375 18.3255 55.1925 17.7302 55.0035C17.7226 55.0012 17.7149 54.9987 17.7073 54.9963M47.7806 29.1678L47.8158 29.1969L48.1703 29.4921L48.455 29.7297L49.7153 30.7781L49.7177 60.0672C43.0048 65.6102 36.2498 71.1023 29.4543 76.5425C29.0231 76.4996 17.8304 67.2942 12.1446 62.6178L11.9859 62.4872C10.5287 61.2889 9.45763 60.4081 9.06155 60.0882L9.04163 30.7941L29.2844 14.208C29.9442 14.3015 42.5812 24.8336 47.7806 29.1678ZM42.0357 40.1382C42.8624 41.1714 43.5726 42.4385 44.2604 43.666C44.4591 44.0196 44.6554 44.3698 44.8522 44.7103C44.9501 44.8796 45.0479 45.0465 45.1463 45.2101L44.752 45.8539L44.3425 46.5196C43.9851 47.0976 43.6259 47.6743 43.2638 48.2497L42.0135 50.2781C42.0123 49.3028 42.0041 48.3257 41.9959 47.3478C41.976 44.9433 41.9566 42.5343 42.0357 40.1382ZM28.8022 15.7151L28.9001 15.799C29.0975 16.3854 29.0425 17.2905 28.995 18.0743C28.9774 18.3619 28.961 18.6332 28.9581 18.8664L17.5579 37.0599C17.5608 36.7786 17.569 36.4816 17.5802 36.1742L17.5907 35.8921L17.6136 35.3411C17.6716 33.9662 17.7337 32.4894 17.5808 31.3333C17.538 31.0094 17.4413 30.8924 17.1905 30.7028L16.9269 30.7527C16.5285 31.3726 16.6427 35.209 16.7048 37.2991L16.723 37.9455C16.7283 38.135 16.7318 38.2928 16.7329 38.4109C15.3648 40.6471 14.0155 42.8943 12.6837 45.1521L16.7411 51.8059L16.7242 55.611L16.7107 59.3769L9.89706 59.367L9.92284 31.209C13.9821 27.7075 18.1679 24.3289 22.3501 20.9534C24.508 19.2119 26.6648 17.4713 28.8022 15.7151ZM24.4284 57.005C23.1464 56.7765 21.8656 56.5482 20.5912 56.4449L21.5767 58.0272C24.204 62.2435 26.8376 66.4716 29.3501 70.7516C30.6238 68.697 31.8853 66.635 33.1321 64.5655C33.6964 63.6559 34.2559 62.7426 34.8155 61.8293C35.9234 60.0201 37.0326 58.2104 38.1781 56.4276C37.4644 56.5286 36.6154 56.6751 35.7119 56.831C33.4696 57.218 30.8898 57.6632 29.2036 57.6172C27.6198 57.5739 26.0238 57.2894 24.4284 57.005ZM17.5644 55.9877L19.4944 56.2665C20.7881 58.4124 22.104 60.5451 23.42 62.6779L23.4253 62.6874L23.4604 62.7447C25.3049 65.7354 27.1494 68.7263 28.9335 71.7541C28.9323 72.2257 28.9335 72.6975 28.9376 73.1694C28.9428 73.8456 28.9528 74.522 28.968 75.1979L25.1209 72.0491L10.599 60.2035C12.2284 60.2261 13.8596 60.2212 15.4902 60.2163C16.1787 60.2142 16.8671 60.2121 17.555 60.2121C17.5931 58.8056 17.5673 57.3954 17.5644 55.9877ZM40.6799 56.0514L40.6078 56.0583L39.272 56.264L29.8241 71.6401L29.7871 75.1868C30.3959 74.6905 31.0053 74.1959 31.6164 73.7028C32.381 73.0853 33.148 72.4702 33.9161 71.857C38.6972 68.0204 43.4396 64.1367 48.1433 60.2047L41.168 60.2121C41.1721 59.9008 41.185 59.576 41.1984 59.2448L41.2002 59.2161C41.243 58.1876 41.2881 57.0995 41.0824 56.1624C40.899 56.0247 40.8756 56.0276 40.7344 56.0449L40.6799 56.0514ZM16.7388 49.8581L16.7359 50.174L15.7263 48.5248C15.2974 47.7363 14.8182 46.9632 14.3406 46.1936C14.128 45.8503 13.9159 45.5077 13.7084 45.1648C14.2979 44.0585 14.9453 42.9765 15.5922 41.8961L16.0867 41.0689C16.2496 40.7944 16.4119 40.5196 16.5718 40.2441C16.9099 40.7585 16.8091 46.0687 16.7576 48.7826C16.7493 49.2182 16.7423 49.5868 16.7388 49.8581ZM40.2416 55.1188L40.4168 54.806C40.725 54.2536 41.035 53.6986 41.4346 53.2066C41.4703 53.7148 41.4328 54.4065 41.3414 54.8226C40.8405 55.0065 40.6371 55.0717 40.2416 55.1188Z" stroke="black" stroke-width="0.516667"/>
<path fill-rule="evenodd" clip-rule="evenodd" d="M39.0393 35.1525C38.6245 34.4817 38.1698 33.7458 37.6906 32.9707C38.161 33.7316 38.6081 34.455 39.0165 35.1159L39.0393 35.1525Z" fill="black" stroke="black" stroke-width="0.516667"/>
<path fill-rule="evenodd" clip-rule="evenodd" d="M41.1351 36.8949C41.1345 36.7045 41.1263 36.403 41.1163 36.0332V36.0518C41.1263 36.4131 41.1345 36.7077 41.1351 36.8949Z" fill="black"/>
<path d="M41.1163 36.0518V36.0332C41.1263 36.403 41.1345 36.7045 41.1351 36.8949C41.1345 36.7077 41.1263 36.4131 41.1163 36.0518ZM41.1163 36.0518V36.0699C41.1263 36.4174 41.1351 36.7017 41.1351 36.886" stroke="black" stroke-width="0.516667"/>
<path fill-rule="evenodd" clip-rule="evenodd" d="M17.5874 35.9727C17.5728 36.3523 17.5611 36.7184 17.5576 37.0611C17.5605 36.7798 17.5687 36.4828 17.5798 36.1754C17.5822 36.1089 17.5851 36.04 17.5874 35.9727ZM16.7326 38.4122C16.7308 38.1773 16.7191 37.7859 16.7045 37.3003L16.7226 37.9467C16.7279 38.1362 16.7314 38.294 16.7326 38.4122Z" fill="black" stroke="black" stroke-width="0.516667"/>
<path fill-rule="evenodd" clip-rule="evenodd" d="M41.1719 60.0155C41.1783 59.7563 41.1895 59.4891 41.2006 59.2178L41.1988 59.2464C41.1883 59.5088 41.1777 59.7646 41.1719 60.0155Z" fill="black"/>
<path d="M41.1988 59.2464L41.2006 59.2178C41.1895 59.4891 41.1783 59.7563 41.1719 60.0155C41.1777 59.7646 41.1883 59.5088 41.1988 59.2464ZM41.1988 59.2464C41.1918 59.4155 41.1848 59.5819 41.1795 59.7467C41.1766 59.8303 41.1742 59.9143 41.1725 59.9964" stroke="black" stroke-width="0.516667"/>
<path fill-rule="evenodd" clip-rule="evenodd" d="M16.5711 40.2432C16.3784 40.5752 16.1827 40.9063 15.9852 41.2371L16.086 41.068C16.2489 40.7934 16.4112 40.5186 16.5711 40.2432ZM16.7352 50.1731C16.7352 49.8411 16.751 49.0942 16.7686 48.1507C16.7645 48.3729 16.7604 48.5842 16.7569 48.7817C16.7446 49.423 16.7352 49.9193 16.7352 50.1731Z" fill="black" stroke="black" stroke-width="0.516667"/>
<path d="M143.943 72.2894V70.3509H145.911C146.586 70.3509 147.164 70.2641 147.647 70.0905C148.129 69.9362 148.534 69.6565 148.862 69.2514C149.19 68.8464 149.469 68.287 149.701 67.5733L154.851 51.0234H156.963L151.581 68.1809C151.273 69.1646 150.848 69.9555 150.308 70.5534C149.768 71.1707 149.122 71.6143 148.37 71.8844C147.618 72.1544 146.759 72.2894 145.795 72.2894H143.943ZM148.92 65.953V64.1302H151.668V65.953H148.92ZM148.659 65.953L143.104 51.0234H145.332L150.685 65.953H148.659Z" fill="black"/>
<path d="M133.414 66.3289V51.0232H135.15V57.4175H134.976C134.976 55.18 135.468 53.5308 136.452 52.4699C137.436 51.3897 138.979 50.8496 141.081 50.8496H141.573V52.8171H140.676C139.017 52.8171 137.754 53.2511 136.886 54.1191C136.018 54.9678 135.584 56.2216 135.584 57.8804V66.3289H133.414Z" fill="black"/>
<path d="M125.909 66.3293V45.208H128.079V66.3293H125.909ZM123.681 46.9729V45.208H128.079V46.9729H123.681Z" fill="black"/>
<path d="M114.817 66.8223C113.505 66.8223 112.367 66.6005 111.403 66.1568C110.438 65.6939 109.647 65.0863 109.03 64.334C108.413 63.5625 107.95 62.7041 107.641 61.759C107.352 60.8138 107.207 59.8397 107.207 58.8367V58.4316C107.207 57.4479 107.352 56.4835 107.641 55.5383C107.95 54.5932 108.413 53.7444 109.03 52.9922C109.647 52.2399 110.419 51.642 111.345 51.1983C112.29 50.7354 113.389 50.5039 114.643 50.5039C116.244 50.5039 117.575 50.8608 118.636 51.5744C119.716 52.2881 120.526 53.2043 121.066 54.3231C121.606 55.4226 121.876 56.6088 121.876 57.8819V59.0103H108.191V57.3322H120.372L119.822 58.1712C119.822 57.0332 119.62 56.0398 119.215 55.1911C118.829 54.3231 118.25 53.648 117.479 53.1658C116.726 52.6643 115.781 52.4135 114.643 52.4135C113.447 52.4135 112.454 52.6932 111.663 53.2526C110.872 53.812 110.274 54.5546 109.869 55.4804C109.483 56.4063 109.29 57.4575 109.29 58.6342C109.29 59.7915 109.483 60.8524 109.869 61.8168C110.274 62.762 110.882 63.5143 111.692 64.0736C112.521 64.633 113.563 64.9127 114.817 64.9127C116.148 64.9127 117.228 64.6137 118.057 64.0158C118.887 63.3985 119.398 62.6752 119.591 61.8458H121.616C121.423 62.8681 121.018 63.7554 120.401 64.5076C119.784 65.2406 119.002 65.8096 118.057 66.2147C117.112 66.6198 116.032 66.8223 114.817 66.8223Z" fill="black"/>
<path d="M75.3912 68.0586C74.0796 68.0586 72.9415 67.8368 71.9771 67.3932C71.0126 66.9302 70.2218 66.3226 69.6045 65.5704C68.9873 64.7988 68.5244 63.9405 68.2157 62.9953C67.9264 62.0501 67.7817 61.0761 67.7817 60.073V59.668C67.7817 58.6842 67.9264 57.7198 68.2157 56.7746C68.5244 55.8295 68.9873 54.9808 69.6045 54.2285C70.2218 53.4762 70.9933 52.8783 71.9192 52.4346C72.8644 51.9717 73.9638 51.7402 75.2176 51.7402C76.8186 51.7402 78.1495 52.0971 79.2104 52.8108C80.2906 53.5245 81.1007 54.4407 81.6408 55.5594C82.1809 56.6589 82.4509 57.8452 82.4509 59.1182V60.2466H68.7655V58.5685H80.9464L80.3967 59.4076C80.3967 58.2695 80.1941 57.2761 79.7891 56.4274C79.4033 55.5594 78.8246 54.8843 78.0531 54.4021C77.3008 53.9006 76.3557 53.6498 75.2176 53.6498C74.0217 53.6498 73.0283 53.9295 72.2375 54.4889C71.4466 55.0483 70.8487 55.7909 70.4436 56.7168C70.0578 57.6426 69.8649 58.6939 69.8649 59.8705C69.8649 61.0278 70.0578 62.0887 70.4436 63.0532C70.8487 63.9983 71.4563 64.7506 72.2664 65.31C73.0958 65.8693 74.1374 66.149 75.3912 66.149C76.7221 66.149 77.8023 65.8501 78.6317 65.2521C79.4612 64.6349 79.9723 63.9115 80.1652 63.0821H82.1905C81.9977 64.1044 81.5926 64.9917 80.9753 65.744C80.3581 66.4769 79.5769 67.046 78.6317 67.451C77.6866 67.8561 76.6064 68.0586 75.3912 68.0586Z" fill="black"/>
<path d="M57.52 73.4411V71.5026H59.256C60.0083 71.5026 60.5773 71.2808 60.9631 70.8371C61.3682 70.4128 61.5707 69.7955 61.5707 68.9854V52.2619H63.6539V68.5803C63.6539 69.7762 63.4899 70.731 63.162 71.4447C62.8534 72.1584 62.3519 72.6696 61.6575 72.9782C60.9631 73.2868 60.0372 73.4411 58.8799 73.4411H57.52ZM59.0824 53.9979V52.2619H63.6539V53.9979H59.0824ZM61.9758 49.166C61.455 49.166 61.0595 49.031 60.7895 48.761C60.5387 48.4716 60.4134 48.1148 60.4134 47.6904C60.4134 47.2661 60.5387 46.9189 60.7895 46.6488C61.0595 46.3595 61.455 46.2148 61.9758 46.2148C62.4966 46.2148 62.8823 46.3595 63.1331 46.6488C63.3838 46.9189 63.5092 47.2661 63.5092 47.6904C63.5092 48.1148 63.3838 48.4716 63.1331 48.761C62.8823 49.031 62.4966 49.166 61.9758 49.166Z" fill="black"/>
<path d="M201.849 43.4082C200.537 43.4082 199.399 43.1864 198.435 42.7428C197.47 42.2798 196.68 41.6722 196.062 40.92C195.445 40.1484 194.982 39.2901 194.674 38.3449C194.384 37.3998 194.24 36.4257 194.24 35.4226V35.0176C194.24 34.0338 194.384 33.0694 194.674 32.1242C194.982 31.1791 195.445 30.3304 196.062 29.5781C196.68 28.8258 197.451 28.2279 198.377 27.7842C199.322 27.3213 200.422 27.0898 201.675 27.0898C203.276 27.0898 204.607 27.4467 205.668 28.1604C206.748 28.8741 207.558 29.7903 208.099 30.909C208.639 32.0085 208.909 33.1948 208.909 34.4678V35.5962H195.223V33.9181H207.404L206.854 34.7572C206.854 33.6191 206.652 32.6258 206.247 31.777C205.861 30.909 205.282 30.2339 204.511 29.7517C203.759 29.2502 202.813 28.9994 201.675 28.9994C200.479 28.9994 199.486 29.2791 198.695 29.8385C197.904 30.3979 197.306 31.1405 196.901 32.0664C196.516 32.9922 196.323 34.0435 196.323 35.2201C196.323 36.3774 196.516 37.4383 196.901 38.4028C197.306 39.3479 197.914 40.1002 198.724 40.6596C199.554 41.219 200.595 41.4986 201.849 41.4986C203.18 41.4986 204.26 41.1997 205.089 40.6017C205.919 39.9845 206.43 39.2611 206.623 38.4317H208.648C208.455 39.454 208.05 40.3413 207.433 41.0936C206.816 41.8266 206.035 42.3956 205.089 42.8006C204.144 43.2057 203.064 43.4082 201.849 43.4082Z" fill="black"/>
<path d="M182.244 43.4071C181.125 43.4071 180.103 43.2046 179.177 42.7996C178.27 42.3752 177.479 41.7965 176.804 41.0635C176.149 40.3113 175.637 39.4626 175.271 38.5174C174.924 37.553 174.75 36.5307 174.75 35.4505V35.0454C174.75 34.0038 174.924 33.0104 175.271 32.0653C175.618 31.1008 176.11 30.2521 176.747 29.5191C177.402 28.7669 178.184 28.1786 179.09 27.7542C180.016 27.3106 181.048 27.0887 182.186 27.0887C183.478 27.0887 184.616 27.3684 185.6 27.9278C186.584 28.4872 187.375 29.2973 187.973 30.3582C188.571 31.3998 188.889 32.6825 188.927 34.2063L187.973 32.4125V21.7939H190.143V42.9153H188.407V36.1159H189.101C189.062 37.7169 188.725 39.0672 188.088 40.1666C187.471 41.2468 186.651 42.0569 185.629 42.597C184.626 43.1371 183.498 43.4071 182.244 43.4071ZM182.533 41.4975C183.575 41.4975 184.51 41.2661 185.34 40.8032C186.188 40.3402 186.854 39.6844 187.336 38.8357C187.818 37.9677 188.059 36.9743 188.059 35.8555V34.4667C188.059 33.3866 187.818 32.4414 187.336 31.6313C186.854 30.8019 186.188 30.1557 185.34 29.6927C184.51 29.2298 183.565 28.9983 182.504 28.9983C181.366 28.9983 180.373 29.278 179.524 29.8374C178.695 30.3775 178.049 31.1201 177.586 32.0653C177.142 33.0104 176.92 34.0713 176.92 35.2479C176.92 36.4631 177.152 37.5433 177.615 38.4885C178.077 39.4336 178.733 40.1763 179.582 40.7163C180.431 41.2371 181.414 41.4975 182.533 41.4975Z" fill="black"/>
<path d="M169.099 42.9149V38.3145H168.751V32.875C168.751 31.737 168.452 30.869 167.854 30.271C167.256 29.6538 166.331 29.3451 165.077 29.3451C164.498 29.3451 163.91 29.3548 163.312 29.3741C162.733 29.3934 162.174 29.4223 161.634 29.4609C161.113 29.4802 160.65 29.5091 160.245 29.5477V27.6381C160.669 27.5995 161.103 27.5609 161.547 27.5223C161.991 27.4838 162.444 27.4645 162.907 27.4645C163.389 27.4452 163.852 27.4355 164.296 27.4355C165.858 27.4355 167.112 27.6284 168.057 28.0142C169.021 28.4 169.725 29.0076 170.169 29.837C170.613 30.6471 170.835 31.7273 170.835 33.0775V42.9149H169.099ZM163.919 43.32C162.839 43.32 161.884 43.1271 161.055 42.7413C160.226 42.3555 159.579 41.7961 159.117 41.0631C158.673 40.3302 158.451 39.4429 158.451 38.4013C158.451 37.379 158.683 36.511 159.145 35.7973C159.628 35.0836 160.312 34.5435 161.2 34.177C162.106 33.7912 163.196 33.5983 164.469 33.5983H168.954V35.2475H164.325C163.109 35.2475 162.174 35.5465 161.518 36.1445C160.881 36.7231 160.563 37.4851 160.563 38.4302C160.563 39.3947 160.901 40.1662 161.576 40.7449C162.251 41.3043 163.167 41.584 164.325 41.584C165.038 41.584 165.723 41.4586 166.379 41.2078C167.035 40.9378 167.584 40.4941 168.028 39.8769C168.472 39.2403 168.713 38.3723 168.751 37.2729L169.388 38.1698C169.311 39.3079 169.041 40.2627 168.578 41.0342C168.115 41.7865 167.488 42.3555 166.697 42.7413C165.906 43.1271 164.98 43.32 163.919 43.32Z" fill="black"/>
<path d="M132.24 42.9161V27.5815H133.976V34.0336H133.629C133.629 32.6255 133.822 31.4103 134.207 30.388C134.613 29.3657 135.21 28.5748 136.001 28.0155C136.792 27.4368 137.795 27.1475 139.01 27.1475H139.097C140.312 27.1475 141.315 27.4272 142.106 27.9865C142.897 28.5459 143.485 29.3368 143.871 30.3591C144.257 31.3814 144.45 32.6062 144.45 34.0336H143.755C143.755 32.6255 143.948 31.4103 144.334 30.388C144.739 29.3657 145.337 28.5748 146.128 28.0155C146.938 27.4368 147.951 27.1475 149.166 27.1475H149.253C150.468 27.1475 151.471 27.4272 152.262 27.9865C153.072 28.5459 153.67 29.3368 154.056 30.3591C154.461 31.3814 154.663 32.6062 154.663 34.0336V42.9161H152.493V33.5417C152.493 32.1915 152.165 31.121 151.51 30.3301C150.854 29.5393 149.909 29.1439 148.674 29.1439C147.401 29.1439 146.388 29.5586 145.636 30.388C144.903 31.1981 144.537 32.2976 144.537 33.6864V42.9161H142.367V33.5417C142.367 32.1915 142.039 31.121 141.383 30.3301C140.727 29.5393 139.782 29.1439 138.547 29.1439C137.274 29.1439 136.262 29.5586 135.509 30.388C134.776 31.1981 134.41 32.2976 134.41 33.6864V42.9161H132.24Z" fill="black"/>
<path d="M119.029 43.4071C117.91 43.4071 116.888 43.2046 115.962 42.7996C115.056 42.3752 114.265 41.7965 113.59 41.0635C112.934 40.3113 112.423 39.4626 112.056 38.5174C111.709 37.553 111.535 36.5307 111.535 35.4505V35.0454C111.535 34.0038 111.709 33.0104 112.056 32.0653C112.403 31.1008 112.895 30.2521 113.532 29.5191C114.188 28.7669 114.969 28.1786 115.875 27.7542C116.801 27.3106 117.833 27.0887 118.971 27.0887C120.264 27.0887 121.402 27.3684 122.385 27.9278C123.369 28.4872 124.16 29.2973 124.758 30.3582C125.356 31.3998 125.674 32.6825 125.713 34.2063L124.758 32.4125V21.7939H126.928V42.9153H125.192V36.1159H125.886C125.848 37.7169 125.51 39.0672 124.874 40.1666C124.256 41.2468 123.437 42.0569 122.414 42.597C121.411 43.1371 120.283 43.4071 119.029 43.4071ZM119.318 41.4975C120.36 41.4975 121.296 41.2661 122.125 40.8032C122.974 40.3402 123.639 39.6844 124.121 38.8357C124.604 37.9677 124.845 36.9743 124.845 35.8555V34.4667C124.845 33.3866 124.604 32.4414 124.121 31.6313C123.639 30.8019 122.974 30.1557 122.125 29.6927C121.296 29.2298 120.35 28.9983 119.29 28.9983C118.151 28.9983 117.158 29.278 116.309 29.8374C115.48 30.3775 114.834 31.1201 114.371 32.0653C113.927 33.0104 113.705 34.0713 113.705 35.2479C113.705 36.4631 113.937 37.5433 114.4 38.4885C114.863 39.4336 115.519 40.1763 116.367 40.7163C117.216 41.2371 118.2 41.4975 119.318 41.4975Z" fill="black"/>
<path d="M94.6744 42.9161V27.6104H96.4104V34.0336H96.0632C96.0632 32.6062 96.2754 31.3814 96.6998 30.3591C97.1241 29.3368 97.7607 28.5459 98.6094 27.9865C99.4581 27.4272 100.529 27.1475 101.821 27.1475H101.908C103.837 27.1475 105.274 27.7551 106.219 28.9703C107.164 30.1662 107.637 31.854 107.637 34.0336V42.9161H105.496V33.5707C105.496 32.2397 105.129 31.1692 104.396 30.3591C103.663 29.5489 102.641 29.1439 101.329 29.1439C99.9789 29.1439 98.8891 29.5682 98.0596 30.4169C97.2495 31.2464 96.8444 32.3458 96.8444 33.7153V42.9161H94.6744Z" fill="black"/>
<path d="M87.8065 42.9149V38.3145H87.4593V32.875C87.4593 31.737 87.1603 30.869 86.5624 30.271C85.9644 29.6538 85.0386 29.3451 83.7848 29.3451C83.2061 29.3451 82.6178 29.3548 82.0199 29.3741C81.4412 29.3934 80.8818 29.4223 80.3417 29.4609C79.8209 29.4802 79.358 29.5091 78.9529 29.5477V27.6381C79.3773 27.5995 79.8113 27.5609 80.2549 27.5223C80.6986 27.4838 81.1519 27.4645 81.6148 27.4645C82.097 27.4452 82.5599 27.4355 83.0036 27.4355C84.566 27.4355 85.8198 27.6284 86.7649 28.0142C87.7294 28.4 88.4334 29.0076 88.8771 29.837C89.3207 30.6471 89.5425 31.7273 89.5425 33.0775V42.9149H87.8065ZM82.6275 43.32C81.5473 43.32 80.5925 43.1271 79.7631 42.7413C78.9336 42.3555 78.2875 41.7961 77.8245 41.0631C77.3809 40.3302 77.1591 39.4429 77.1591 38.4013C77.1591 37.379 77.3905 36.511 77.8535 35.7973C78.3357 35.0836 79.0204 34.5435 79.9077 34.177C80.8143 33.7912 81.9041 33.5983 83.1772 33.5983H87.6619V35.2475H83.0325C81.8173 35.2475 80.8818 35.5465 80.226 36.1445C79.5895 36.7231 79.2712 37.4851 79.2712 38.4302C79.2712 39.3947 79.6087 40.1662 80.2839 40.7449C80.959 41.3043 81.8752 41.584 83.0325 41.584C83.7462 41.584 84.431 41.4586 85.0868 41.2078C85.7426 40.9378 86.2923 40.4941 86.736 39.8769C87.1796 39.2403 87.4207 38.3723 87.4593 37.2729L88.0959 38.1698C88.0187 39.3079 87.7487 40.2627 87.2857 41.0342C86.8228 41.7865 86.1959 42.3555 85.4051 42.7413C84.6142 43.1271 83.6883 43.32 82.6275 43.32Z" fill="black"/>
<path d="M60.4142 42.9153V21.7939H62.5842V33.7434L61.9477 34.2353C61.9477 32.8079 62.1502 31.5638 62.5553 30.5029C62.9796 29.442 63.6065 28.6222 64.4359 28.0435C65.2846 27.4456 66.3455 27.1466 67.6186 27.1466H67.7343C69.5861 27.1466 70.9845 27.7542 71.9297 28.9694C72.8941 30.1846 73.3763 31.8724 73.3763 34.0327V42.9153H71.2353V33.5698C71.2353 32.2003 70.8591 31.1201 70.1069 30.3293C69.3546 29.5384 68.3419 29.143 67.0689 29.143C65.6993 29.143 64.6095 29.5867 63.7994 30.4739C62.9893 31.3419 62.5842 32.4896 62.5842 33.917V42.9153H60.4142Z" fill="black"/>
<path d="M90.5393 65.8746L93.5752 52.1188H96.3962L99.9157 65.8746H98.1694L94.6499 52.1994H95.2947L92.2319 65.8746H90.5393ZM89.384 65.8746V64.2357H91.8289V65.8746H89.384ZM88.9004 65.8746L84.7898 51.6621H86.7242L90.7811 65.8746H88.9004ZM98.6261 65.8746V64.2357H101.017V65.8746H98.6261ZM99.6739 65.8746L103.22 51.6621H105.074L101.447 65.8746H99.6739Z" fill="black"/>
</svg>
