<svg width="32" height="32" viewBox="0 0 32 32" fill="none" xmlns="http://www.w3.org/2000/svg">
<path d="M28.7909 9.60385C28.639 9.04038 28.3422 8.52652 27.93 8.1134C27.5178 7.70029 27.0046 7.40233 26.4415 7.24918C24.3535 6.67585 16.0002 6.66651 16.0002 6.66651C16.0002 6.66651 7.6482 6.65718 5.55886 7.20518C4.9961 7.36538 4.48396 7.66755 4.07162 8.08269C3.65928 8.49784 3.36058 9.01201 3.2042 9.57585C2.65353 11.6638 2.6482 15.9945 2.6482 15.9945C2.6482 15.9945 2.64286 20.3465 3.18953 22.4132C3.4962 23.5558 4.3962 24.4585 5.5402 24.7665C7.64953 25.3398 15.9802 25.3492 15.9802 25.3492C15.9802 25.3492 24.3335 25.3585 26.4215 24.8118C26.9849 24.659 27.4985 24.3617 27.9117 23.9494C28.3249 23.5371 28.6234 23.0242 28.7775 22.4612C29.3295 20.3745 29.3335 16.0452 29.3335 16.0452C29.3335 16.0452 29.3602 11.6918 28.7909 9.60385ZM13.3282 20.0065L13.3349 12.0065L20.2775 16.0132L13.3282 20.0065Z" fill="black"/>
</svg>
